<svg width="1396" height="854" viewBox="0 0 1396 854" fill="none" xmlns="http://www.w3.org/2000/svg">
<g clip-path="url(#clip0_102_2)">
<rect width="1396" height="854" fill="#393939"/>
<path d="M78.58 205.42C80.06 205.42 81.1733 206.013 81.92 207.2C82.68 208.373 83.06 210.08 83.06 212.32C83.06 214.56 82.68 216.273 81.92 217.46C81.1733 218.647 80.06 219.24 78.58 219.24C77.1 219.24 75.98 218.647 75.22 217.46C74.4733 216.273 74.1 214.56 74.1 212.32C74.1 210.08 74.4733 208.373 75.22 207.2C75.98 206.013 77.1 205.42 78.58 205.42ZM78.58 206.88C77.7133 206.88 77.0667 207.307 76.64 208.16C76.2267 209.013 76.02 210.4 76.02 212.32C76.02 214.24 76.2267 215.633 76.64 216.5C77.0667 217.353 77.7133 217.78 78.58 217.78C79.4333 217.78 80.0733 217.353 80.5 216.5C80.9267 215.633 81.14 214.24 81.14 212.32C81.14 210.413 80.9267 209.033 80.5 208.18C80.0733 207.313 79.4333 206.88 78.58 206.88Z" fill="white"/>
<path d="M379.16 210.2C379.84 210.2 380.46 210.36 381.02 210.68C381.58 211 382.027 211.48 382.36 212.12C382.693 212.76 382.86 213.54 382.86 214.46C382.86 215.407 382.667 216.247 382.28 216.98C381.907 217.7 381.393 218.26 380.74 218.66C380.1 219.047 379.387 219.24 378.6 219.24C377.04 219.24 375.9 218.667 375.18 217.52C374.46 216.36 374.1 214.76 374.1 212.72C374.1 211.267 374.3 209.993 374.7 208.9C375.113 207.793 375.7 206.94 376.46 206.34C377.22 205.727 378.12 205.42 379.16 205.42C380.173 205.42 381.093 205.693 381.92 206.24L381.2 207.46C380.573 207.073 379.887 206.88 379.14 206.88C378.18 206.88 377.42 207.34 376.86 208.26C376.3 209.18 375.993 210.413 375.94 211.96C376.767 210.787 377.84 210.2 379.16 210.2ZM378.6 217.78C379.373 217.78 379.967 217.487 380.38 216.9C380.793 216.313 381 215.52 381 214.52C381 212.613 380.28 211.66 378.84 211.66C378.253 211.66 377.713 211.827 377.22 212.16C376.727 212.48 376.307 212.927 375.96 213.5C376 214.967 376.227 216.047 376.64 216.74C377.067 217.433 377.72 217.78 378.6 217.78Z" fill="white"/>
<path d="M228.5 175.42C229.327 175.42 230.033 175.573 230.62 175.88C231.22 176.187 231.673 176.6 231.98 177.12C232.3 177.64 232.46 178.207 232.46 178.82C232.46 179.633 232.22 180.307 231.74 180.84C231.273 181.36 230.647 181.713 229.86 181.9C230.753 181.98 231.48 182.3 232.04 182.86C232.6 183.42 232.88 184.18 232.88 185.14C232.88 185.913 232.693 186.613 232.32 187.24C231.947 187.867 231.413 188.36 230.72 188.72C230.027 189.067 229.227 189.24 228.32 189.24C227.507 189.24 226.76 189.093 226.08 188.8C225.4 188.493 224.807 188.04 224.3 187.44L225.4 186.42C225.84 186.873 226.287 187.207 226.74 187.42C227.207 187.633 227.713 187.74 228.26 187.74C229.1 187.74 229.76 187.507 230.24 187.04C230.72 186.56 230.96 185.92 230.96 185.12C230.96 184.24 230.733 183.62 230.28 183.26C229.827 182.9 229.167 182.72 228.3 182.72H227.3L227.52 181.3H228.2C228.893 181.3 229.467 181.093 229.92 180.68C230.387 180.267 230.62 179.687 230.62 178.94C230.62 178.313 230.42 177.82 230.02 177.46C229.62 177.087 229.08 176.9 228.4 176.9C227.88 176.9 227.4 176.993 226.96 177.18C226.533 177.367 226.093 177.673 225.64 178.1L224.68 177C225.813 175.947 227.087 175.42 228.5 175.42Z" fill="white"/>
<path d="M529.18 175.42C530.593 175.42 531.667 175.887 532.4 176.82C533.133 177.74 533.5 179.007 533.5 180.62C533.5 182.447 533.253 183.92 532.76 185.04C532.267 186.147 531.513 187.033 530.5 187.7C529.487 188.353 528.113 188.933 526.38 189.44L525.96 188.06C527.747 187.553 529.113 186.867 530.06 186C531.02 185.133 531.533 183.98 531.6 182.54C531.293 183.02 530.88 183.407 530.36 183.7C529.84 183.993 529.253 184.14 528.6 184.14C527.907 184.14 527.28 183.967 526.72 183.62C526.16 183.26 525.713 182.76 525.38 182.12C525.06 181.467 524.9 180.707 524.9 179.84C524.9 178.933 525.093 178.147 525.48 177.48C525.867 176.813 526.38 176.307 527.02 175.96C527.673 175.6 528.393 175.42 529.18 175.42ZM528.98 182.7C530.033 182.7 530.92 182.147 531.64 181.04C531.667 179.56 531.48 178.5 531.08 177.86C530.693 177.207 530.073 176.88 529.22 176.88C528.433 176.88 527.827 177.14 527.4 177.66C526.973 178.18 526.76 178.92 526.76 179.88C526.76 180.813 526.96 181.52 527.36 182C527.76 182.467 528.3 182.7 528.98 182.7Z" fill="white"/>
<path d="M825.46 175.62V189H823.62V177.58L820.5 179.48L819.7 178.18L823.84 175.62H825.46ZM836.052 177.06H830.832V181C831.512 180.653 832.226 180.48 832.972 180.48C834.119 180.48 835.039 180.86 835.732 181.62C836.426 182.367 836.772 183.4 836.772 184.72C836.772 185.6 836.579 186.387 836.192 187.08C835.806 187.76 835.259 188.293 834.552 188.68C833.859 189.053 833.052 189.24 832.132 189.24C831.319 189.24 830.592 189.1 829.952 188.82C829.312 188.527 828.719 188.1 828.172 187.54L829.252 186.48C829.679 186.907 830.119 187.227 830.572 187.44C831.026 187.64 831.539 187.74 832.112 187.74C832.966 187.74 833.632 187.473 834.112 186.94C834.606 186.407 834.852 185.653 834.852 184.68C834.852 183.707 834.632 183 834.192 182.56C833.752 182.12 833.159 181.9 832.412 181.9C832.066 181.9 831.746 181.94 831.452 182.02C831.159 182.087 830.846 182.2 830.512 182.36H829.072V175.62H836.312L836.052 177.06Z" fill="white"/>
<path d="M747.46 175.62V189H745.62V177.58L742.5 179.48L741.7 178.18L745.84 175.62H747.46ZM754.152 175.42C754.979 175.42 755.686 175.573 756.272 175.88C756.872 176.187 757.326 176.6 757.632 177.12C757.952 177.64 758.112 178.207 758.112 178.82C758.112 179.633 757.872 180.307 757.392 180.84C756.926 181.36 756.299 181.713 755.512 181.9C756.406 181.98 757.132 182.3 757.692 182.86C758.252 183.42 758.532 184.18 758.532 185.14C758.532 185.913 758.346 186.613 757.972 187.24C757.599 187.867 757.066 188.36 756.372 188.72C755.679 189.067 754.879 189.24 753.972 189.24C753.159 189.24 752.412 189.093 751.732 188.8C751.052 188.493 750.459 188.04 749.952 187.44L751.052 186.42C751.492 186.873 751.939 187.207 752.392 187.42C752.859 187.633 753.366 187.74 753.912 187.74C754.752 187.74 755.412 187.507 755.892 187.04C756.372 186.56 756.612 185.92 756.612 185.12C756.612 184.24 756.386 183.62 755.932 183.26C755.479 182.9 754.819 182.72 753.952 182.72H752.952L753.172 181.3H753.852C754.546 181.3 755.119 181.093 755.572 180.68C756.039 180.267 756.272 179.687 756.272 178.94C756.272 178.313 756.072 177.82 755.672 177.46C755.272 177.087 754.732 176.9 754.052 176.9C753.532 176.9 753.052 176.993 752.612 177.18C752.186 177.367 751.746 177.673 751.292 178.1L750.332 177C751.466 175.947 752.739 175.42 754.152 175.42ZM762.013 186.46C762.413 186.46 762.746 186.593 763.013 186.86C763.279 187.127 763.413 187.453 763.413 187.84C763.413 188.227 763.279 188.56 763.013 188.84C762.746 189.107 762.413 189.24 762.013 189.24C761.626 189.24 761.299 189.107 761.033 188.84C760.766 188.56 760.633 188.227 760.633 187.84C760.633 187.453 760.766 187.127 761.033 186.86C761.299 186.593 761.626 186.46 762.013 186.46ZM762.013 179.1C762.413 179.1 762.746 179.233 763.013 179.5C763.279 179.767 763.413 180.093 763.413 180.48C763.413 180.867 763.279 181.2 763.013 181.48C762.746 181.747 762.413 181.88 762.013 181.88C761.626 181.88 761.299 181.747 761.033 181.48C760.766 181.2 760.633 180.867 760.633 180.48C760.633 180.093 760.766 179.767 761.033 179.5C761.299 179.233 761.626 179.1 762.013 179.1ZM769.113 175.42C769.94 175.42 770.647 175.573 771.233 175.88C771.833 176.187 772.287 176.6 772.593 177.12C772.913 177.64 773.073 178.207 773.073 178.82C773.073 179.633 772.833 180.307 772.353 180.84C771.887 181.36 771.26 181.713 770.473 181.9C771.367 181.98 772.093 182.3 772.653 182.86C773.213 183.42 773.493 184.18 773.493 185.14C773.493 185.913 773.307 186.613 772.933 187.24C772.56 187.867 772.027 188.36 771.333 188.72C770.64 189.067 769.84 189.24 768.933 189.24C768.12 189.24 767.373 189.093 766.693 188.8C766.013 188.493 765.42 188.04 764.913 187.44L766.013 186.42C766.453 186.873 766.9 187.207 767.353 187.42C767.82 187.633 768.327 187.74 768.873 187.74C769.713 187.74 770.373 187.507 770.853 187.04C771.333 186.56 771.573 185.92 771.573 185.12C771.573 184.24 771.347 183.62 770.893 183.26C770.44 182.9 769.78 182.72 768.913 182.72H767.913L768.133 181.3H768.813C769.507 181.3 770.08 181.093 770.533 180.68C771 180.267 771.233 179.687 771.233 178.94C771.233 178.313 771.033 177.82 770.633 177.46C770.233 177.087 769.693 176.9 769.013 176.9C768.493 176.9 768.013 176.993 767.573 177.18C767.147 177.367 766.707 177.673 766.253 178.1L765.293 177C766.427 175.947 767.7 175.42 769.113 175.42ZM780.174 175.42C781.654 175.42 782.767 176.013 783.514 177.2C784.274 178.373 784.654 180.08 784.654 182.32C784.654 184.56 784.274 186.273 783.514 187.46C782.767 188.647 781.654 189.24 780.174 189.24C778.694 189.24 777.574 188.647 776.814 187.46C776.067 186.273 775.694 184.56 775.694 182.32C775.694 180.08 776.067 178.373 776.814 177.2C777.574 176.013 778.694 175.42 780.174 175.42ZM780.174 176.88C779.307 176.88 778.66 177.307 778.234 178.16C777.82 179.013 777.614 180.4 777.614 182.32C777.614 184.24 777.82 185.633 778.234 186.5C778.66 187.353 779.307 187.78 780.174 187.78C781.027 187.78 781.667 187.353 782.094 186.5C782.52 185.633 782.734 184.24 782.734 182.32C782.734 180.413 782.52 179.033 782.094 178.18C781.667 177.313 781.027 176.88 780.174 176.88Z" fill="white"/>
<path d="M1124.56 170.42C1125.36 170.42 1126.06 170.58 1126.66 170.9C1127.27 171.22 1127.75 171.66 1128.08 172.22C1128.41 172.767 1128.58 173.387 1128.58 174.08C1128.58 174.893 1128.39 175.673 1128.02 176.42C1127.66 177.167 1127.1 177.973 1126.34 178.84C1125.58 179.707 1124.43 180.913 1122.88 182.46H1128.9L1128.68 184H1120.78V182.54C1122.57 180.687 1123.83 179.333 1124.58 178.48C1125.33 177.613 1125.86 176.86 1126.18 176.22C1126.5 175.58 1126.66 174.893 1126.66 174.16C1126.66 173.467 1126.46 172.927 1126.06 172.54C1125.66 172.14 1125.13 171.94 1124.46 171.94C1123.91 171.94 1123.43 172.053 1123.02 172.28C1122.61 172.507 1122.17 172.88 1121.7 173.4L1120.5 172.44C1121.05 171.76 1121.65 171.253 1122.32 170.92C1122.99 170.587 1123.73 170.42 1124.56 170.42ZM1135.85 170.62V184H1134.01V172.58L1130.89 174.48L1130.09 173.18L1134.23 170.62H1135.85Z" fill="white"/>
<path d="M1191.56 175.42C1192.36 175.42 1193.06 175.58 1193.66 175.9C1194.27 176.22 1194.75 176.66 1195.08 177.22C1195.41 177.767 1195.58 178.387 1195.58 179.08C1195.58 179.893 1195.39 180.673 1195.02 181.42C1194.66 182.167 1194.1 182.973 1193.34 183.84C1192.58 184.707 1191.43 185.913 1189.88 187.46H1195.9L1195.68 189H1187.78V187.54C1189.57 185.687 1190.83 184.333 1191.58 183.48C1192.33 182.613 1192.86 181.86 1193.18 181.22C1193.5 180.58 1193.66 179.893 1193.66 179.16C1193.66 178.467 1193.46 177.927 1193.06 177.54C1192.66 177.14 1192.13 176.94 1191.46 176.94C1190.91 176.94 1190.43 177.053 1190.02 177.28C1189.61 177.507 1189.17 177.88 1188.7 178.4L1187.5 177.44C1188.05 176.76 1188.65 176.253 1189.32 175.92C1189.99 175.587 1190.73 175.42 1191.56 175.42ZM1202.85 175.62V189H1201.01V177.58L1197.89 179.48L1197.09 178.18L1201.23 175.62H1202.85ZM1207.43 186.46C1207.83 186.46 1208.16 186.593 1208.43 186.86C1208.69 187.127 1208.83 187.453 1208.83 187.84C1208.83 188.227 1208.69 188.56 1208.43 188.84C1208.16 189.107 1207.83 189.24 1207.43 189.24C1207.04 189.24 1206.71 189.107 1206.45 188.84C1206.18 188.56 1206.05 188.227 1206.05 187.84C1206.05 187.453 1206.18 187.127 1206.45 186.86C1206.71 186.593 1207.04 186.46 1207.43 186.46ZM1207.43 179.1C1207.83 179.1 1208.16 179.233 1208.43 179.5C1208.69 179.767 1208.83 180.093 1208.83 180.48C1208.83 180.867 1208.69 181.2 1208.43 181.48C1208.16 181.747 1207.83 181.88 1207.43 181.88C1207.04 181.88 1206.71 181.747 1206.45 181.48C1206.18 181.2 1206.05 180.867 1206.05 180.48C1206.05 180.093 1206.18 179.767 1206.45 179.5C1206.71 179.233 1207.04 179.1 1207.43 179.1ZM1214.53 175.42C1215.35 175.42 1216.06 175.573 1216.65 175.88C1217.25 176.187 1217.7 176.6 1218.01 177.12C1218.33 177.64 1218.49 178.207 1218.49 178.82C1218.49 179.633 1218.25 180.307 1217.77 180.84C1217.3 181.36 1216.67 181.713 1215.89 181.9C1216.78 181.98 1217.51 182.3 1218.07 182.86C1218.63 183.42 1218.91 184.18 1218.91 185.14C1218.91 185.913 1218.72 186.613 1218.35 187.24C1217.97 187.867 1217.44 188.36 1216.75 188.72C1216.05 189.067 1215.25 189.24 1214.35 189.24C1213.53 189.24 1212.79 189.093 1212.11 188.8C1211.43 188.493 1210.83 188.04 1210.33 187.44L1211.43 186.42C1211.87 186.873 1212.31 187.207 1212.77 187.42C1213.23 187.633 1213.74 187.74 1214.29 187.74C1215.13 187.74 1215.79 187.507 1216.27 187.04C1216.75 186.56 1216.99 185.92 1216.99 185.12C1216.99 184.24 1216.76 183.62 1216.31 183.26C1215.85 182.9 1215.19 182.72 1214.33 182.72H1213.33L1213.55 181.3H1214.23C1214.92 181.3 1215.49 181.093 1215.95 180.68C1216.41 180.267 1216.65 179.687 1216.65 178.94C1216.65 178.313 1216.45 177.82 1216.05 177.46C1215.65 177.087 1215.11 176.9 1214.43 176.9C1213.91 176.9 1213.43 176.993 1212.99 177.18C1212.56 177.367 1212.12 177.673 1211.67 178.1L1210.71 177C1211.84 175.947 1213.11 175.42 1214.53 175.42ZM1225.59 175.42C1227.07 175.42 1228.18 176.013 1228.93 177.2C1229.69 178.373 1230.07 180.08 1230.07 182.32C1230.07 184.56 1229.69 186.273 1228.93 187.46C1228.18 188.647 1227.07 189.24 1225.59 189.24C1224.11 189.24 1222.99 188.647 1222.23 187.46C1221.48 186.273 1221.11 184.56 1221.11 182.32C1221.11 180.08 1221.48 178.373 1222.23 177.2C1222.99 176.013 1224.11 175.42 1225.59 175.42ZM1225.59 176.88C1224.72 176.88 1224.07 177.307 1223.65 178.16C1223.23 179.013 1223.03 180.4 1223.03 182.32C1223.03 184.24 1223.23 185.633 1223.65 186.5C1224.07 187.353 1224.72 187.78 1225.59 187.78C1226.44 187.78 1227.08 187.353 1227.51 186.5C1227.93 185.633 1228.15 184.24 1228.15 182.32C1228.15 180.413 1227.93 179.033 1227.51 178.18C1227.08 177.313 1226.44 176.88 1225.59 176.88Z" fill="white"/>
<path d="M975.46 205.62V219H973.62V207.58L970.5 209.48L969.7 208.18L973.84 205.62H975.46ZM984.952 211.82C986.832 212.58 987.772 213.78 987.772 215.42C987.772 216.153 987.572 216.813 987.172 217.4C986.786 217.973 986.239 218.427 985.532 218.76C984.826 219.08 984.026 219.24 983.132 219.24C982.226 219.24 981.426 219.08 980.732 218.76C980.039 218.44 979.499 217.993 979.112 217.42C978.739 216.847 978.552 216.193 978.552 215.46C978.552 214.633 978.772 213.94 979.212 213.38C979.666 212.82 980.326 212.353 981.192 211.98C980.486 211.62 979.959 211.187 979.612 210.68C979.279 210.16 979.112 209.553 979.112 208.86C979.112 208.14 979.299 207.52 979.672 207C980.059 206.48 980.559 206.087 981.172 205.82C981.799 205.553 982.466 205.42 983.172 205.42C983.866 205.42 984.519 205.547 985.132 205.8C985.759 206.053 986.266 206.44 986.652 206.96C987.039 207.467 987.232 208.08 987.232 208.8C987.232 209.467 987.046 210.04 986.672 210.52C986.299 211 985.726 211.433 984.952 211.82ZM983.172 206.8C982.479 206.8 981.926 206.98 981.512 207.34C981.112 207.7 980.912 208.213 980.912 208.88C980.912 209.52 981.106 210.007 981.492 210.34C981.892 210.673 982.526 210.98 983.392 211.26L983.732 211.38C984.332 211.033 984.766 210.667 985.032 210.28C985.299 209.893 985.432 209.42 985.432 208.86C985.432 208.233 985.232 207.733 984.832 207.36C984.446 206.987 983.892 206.8 983.172 206.8ZM983.152 217.78C983.979 217.78 984.632 217.567 985.112 217.14C985.606 216.713 985.852 216.147 985.852 215.44C985.852 214.96 985.759 214.56 985.572 214.24C985.386 213.907 985.086 213.62 984.672 213.38C984.259 213.127 983.679 212.873 982.932 212.62L982.432 212.44C981.766 212.76 981.272 213.167 980.952 213.66C980.632 214.14 980.472 214.74 980.472 215.46C980.472 216.193 980.712 216.767 981.192 217.18C981.672 217.58 982.326 217.78 983.152 217.78Z" fill="white"/>
<path d="M676.46 205.62V219H674.62V207.58L671.5 209.48L670.7 208.18L674.84 205.62H676.46ZM683.212 205.42C684.012 205.42 684.712 205.58 685.312 205.9C685.926 206.22 686.399 206.66 686.732 207.22C687.066 207.767 687.232 208.387 687.232 209.08C687.232 209.893 687.046 210.673 686.672 211.42C686.312 212.167 685.752 212.973 684.992 213.84C684.232 214.707 683.079 215.913 681.532 217.46H687.552L687.332 219H679.432V217.54C681.219 215.687 682.486 214.333 683.232 213.48C683.979 212.613 684.512 211.86 684.832 211.22C685.152 210.58 685.312 209.893 685.312 209.16C685.312 208.467 685.112 207.927 684.712 207.54C684.312 207.14 683.779 206.94 683.112 206.94C682.566 206.94 682.086 207.053 681.672 207.28C681.259 207.507 680.819 207.88 680.352 208.4L679.152 207.44C679.699 206.76 680.306 206.253 680.972 205.92C681.639 205.587 682.386 205.42 683.212 205.42Z" fill="white"/>
<path d="M1274.56 205.42C1275.36 205.42 1276.06 205.58 1276.66 205.9C1277.27 206.22 1277.75 206.66 1278.08 207.22C1278.41 207.767 1278.58 208.387 1278.58 209.08C1278.58 209.893 1278.39 210.673 1278.02 211.42C1277.66 212.167 1277.1 212.973 1276.34 213.84C1275.58 214.707 1274.43 215.913 1272.88 217.46H1278.9L1278.68 219H1270.78V217.54C1272.57 215.687 1273.83 214.333 1274.58 213.48C1275.33 212.613 1275.86 211.86 1276.18 211.22C1276.5 210.58 1276.66 209.893 1276.66 209.16C1276.66 208.467 1276.46 207.927 1276.06 207.54C1275.66 207.14 1275.13 206.94 1274.46 206.94C1273.91 206.94 1273.43 207.053 1273.02 207.28C1272.61 207.507 1272.17 207.88 1271.7 208.4L1270.5 207.44C1271.05 206.76 1271.65 206.253 1272.32 205.92C1272.99 205.587 1273.73 205.42 1274.56 205.42ZM1289.4 214.24V215.7H1287.66V219H1285.88V215.7H1280.16V214.38L1284.18 205.42L1285.72 206.06L1282.1 214.24H1285.9L1286.06 210.64H1287.66V214.24H1289.4Z" fill="white"/>
<line x1="829.5" y1="151" x2="829.5" y2="170" stroke="white"/>
<line x1="761.5" y1="151" x2="761.5" y2="170" stroke="white"/>
<line x1="1129.5" y1="151" x2="1129.5" y2="170" stroke="white"/>
<line x1="1206.5" y1="151" x2="1206.5" y2="170" stroke="white"/>
<line x1="229.5" y1="151" x2="229.5" y2="170" stroke="white"/>
<line x1="529.5" y1="151" x2="529.5" y2="170" stroke="white"/>
<line x1="979.5" y1="151" x2="979.5" y2="189" stroke="white"/>
<line x1="379.5" y1="151" x2="379.5" y2="189" stroke="white"/>
<line x1="680.5" y1="151" x2="680.5" y2="200" stroke="#FF7426" stroke-width="3"/>
<line x1="1281" y1="151" x2="1281" y2="200" stroke="#26FF3C" stroke-width="2"/>
<line x1="80" y1="151" x2="80" y2="200" stroke="#FF0000" stroke-width="2"/>
<path d="M89 60.5C82.6487 60.5 77.5 65.6487 77.5 72V141C77.5 147.351 82.6487 152.5 89 152.5H1270C1276.35 152.5 1281.5 147.351 1281.5 141V72C1281.5 65.6487 1276.35 60.5 1270 60.5H89Z" fill="#C7C7C7" fill-opacity="0.5" stroke="#949494" stroke-width="3" stroke-linejoin="round"/>
<path d="M88.76 23.44C92.92 23.44 96.2533 24.4133 98.76 26.36C101.293 28.28 102.56 31.8533 102.56 37.08C102.56 42.1733 101.293 45.7733 98.76 47.88C96.2533 49.96 93.2 51 89.6 51H83V23.44H88.76ZM86.8 26.48V48H89.88C92.44 48 94.52 47.2133 96.12 45.64C97.72 44.0667 98.52 41.2133 98.52 37.08C98.52 34.1733 98.1067 31.9467 97.28 30.4C96.4533 28.8267 95.4 27.7867 94.12 27.28C92.84 26.7467 91.3333 26.48 89.6 26.48H86.8ZM123.032 51L120.952 44.08H110.512L108.432 51H104.592L113.432 23.44H118.232L127.032 51H123.032ZM111.432 41H120.032L115.752 26.6L111.432 41ZM147.128 23.44L138.248 40.4V51H134.408V40.44L125.528 23.44H129.728L136.448 37.08L143.168 23.44H147.128ZM169.146 23.44C172.56 23.44 175.2 24.16 177.066 25.6C178.933 27.0133 179.866 29.1333 179.866 31.96C179.866 34.9733 178.893 37.2133 176.946 38.68C175 40.1467 172.413 40.88 169.186 40.88H165.706V51H161.906V23.44H169.146ZM169.026 37.88C171.24 37.88 172.92 37.4533 174.066 36.6C175.24 35.7467 175.826 34.2133 175.826 32C175.826 30.0267 175.24 28.6 174.066 27.72C172.92 26.84 171.266 26.4 169.106 26.4H165.706V37.88H169.026ZM188.948 23.44V47.68H200.268L199.828 51H185.148V23.44H188.948ZM219.75 51L217.67 44.08H207.23L205.15 51H201.31L210.15 23.44H214.95L223.75 51H219.75ZM208.15 41H216.75L212.47 26.6L208.15 41ZM247.32 51H242.24L231.04 27.6C231.2 29.44 231.32 31.1467 231.4 32.72C231.507 34.2667 231.56 36.1467 231.56 38.36V51H228V23.44H232.96L244.28 46.88C244.2 46.1867 244.093 44.9733 243.96 43.24C243.827 41.5067 243.76 39.92 243.76 38.48V23.44H247.32V51ZM274.625 51H269.545L258.345 27.6C258.505 29.44 258.625 31.1467 258.705 32.72C258.811 34.2667 258.865 36.1467 258.865 38.36V51H255.305V23.44H260.265L271.585 46.88C271.505 46.1867 271.398 44.9733 271.265 43.24C271.131 41.5067 271.065 39.92 271.065 38.48V23.44H274.625V51ZM297.529 23.44L297.089 26.48H286.409V35.48H295.689V38.52H286.409V47.96H297.849V51H282.609V23.44H297.529ZM312.096 39.32H307.816V51H304.016V23.44H311.256C314.696 23.44 317.296 24.0933 319.056 25.4C320.842 26.7067 321.736 28.6533 321.736 31.24C321.736 33.16 321.242 34.72 320.256 35.92C319.269 37.12 317.776 38.0267 315.776 38.64L323.216 51H318.696L312.096 39.32ZM311.656 36.4C313.656 36.4 315.162 36 316.176 35.2C317.189 34.3733 317.696 33.0533 317.696 31.24C317.696 29.5333 317.176 28.3067 316.136 27.56C315.122 26.7867 313.482 26.4 311.216 26.4H307.816V36.4H311.656Z" fill="#A0A0A0"/>
<circle cx="978.5" cy="588.5" r="217.5" fill="#C7C7C7" fill-opacity="0.5"/>
<mask id="path-26-inside-1_102_2" fill="white">
<path d="M761 588.5C761 530.815 783.915 475.493 824.704 434.704C865.493 393.915 920.815 371 978.5 371V588.5L761 588.5Z"/>
</mask>
<path d="M761 588.5C761 530.815 783.915 475.493 824.704 434.704C865.493 393.915 920.815 371 978.5 371V588.5L761 588.5Z" fill="#00F0FF" stroke="black" stroke-width="2" mask="url(#path-26-inside-1_102_2)"/>
<mask id="path-27-inside-2_102_2" fill="white">
<path d="M978.5 371C1036.18 371 1091.51 393.915 1132.3 434.704C1173.08 475.493 1196 530.815 1196 588.5L978.5 588.5V371Z"/>
</mask>
<path d="M978.5 371C1036.18 371 1091.51 393.915 1132.3 434.704C1173.08 475.493 1196 530.815 1196 588.5L978.5 588.5V371Z" fill="#FF60C9" stroke="black" stroke-width="2" mask="url(#path-27-inside-2_102_2)"/>
<mask id="path-28-inside-3_102_2" fill="white">
<path d="M1179.85 670.745C1163.63 710.463 1136.02 744.495 1100.5 768.561C1064.98 792.626 1023.14 805.65 980.24 805.993L978.5 588.5L1179.85 670.745Z"/>
</mask>
<path d="M1179.85 670.745C1163.63 710.463 1136.02 744.495 1100.5 768.561C1064.98 792.626 1023.14 805.65 980.24 805.993L978.5 588.5L1179.85 670.745Z" fill="#FF60C9" stroke="black" stroke-width="2" mask="url(#path-28-inside-3_102_2)"/>
<mask id="path-29-inside-4_102_2" fill="white">
<path d="M1196 588.5C1196 616.807 1190.47 644.842 1179.73 671.033L978.5 588.5H1196Z"/>
</mask>
<path d="M1196 588.5C1196 616.807 1190.47 644.842 1179.73 671.033L978.5 588.5H1196Z" fill="#F1FF4A" stroke="black" stroke-width="2" mask="url(#path-29-inside-4_102_2)"/>
<mask id="path-30-inside-5_102_2" fill="white">
<path d="M806.591 721.742C776.997 683.56 760.957 636.613 761 588.306L978.5 588.5L806.591 721.742Z"/>
</mask>
<path d="M806.591 721.742C776.997 683.56 760.957 636.613 761 588.306L978.5 588.5L806.591 721.742Z" fill="#00F0FF" stroke="black" stroke-width="2" mask="url(#path-30-inside-5_102_2)"/>
<circle cx="979" cy="589" r="109" fill="#393939"/>
<path d="M963.12 574.84C964.72 574.84 966.12 575.16 967.32 575.8C968.547 576.44 969.493 577.32 970.16 578.44C970.827 579.533 971.16 580.773 971.16 582.16C971.16 583.787 970.787 585.347 970.04 586.84C969.32 588.333 968.2 589.947 966.68 591.68C965.16 593.413 962.853 595.827 959.76 598.92H971.8L971.36 602H955.56V599.08C959.133 595.373 961.667 592.667 963.16 590.96C964.653 589.227 965.72 587.72 966.36 586.44C967 585.16 967.32 583.787 967.32 582.32C967.32 580.933 966.92 579.853 966.12 579.08C965.32 578.28 964.253 577.88 962.92 577.88C961.827 577.88 960.867 578.107 960.04 578.56C959.213 579.013 958.333 579.76 957.4 580.8L955 578.88C956.093 577.52 957.307 576.507 958.64 575.84C959.973 575.173 961.467 574.84 963.12 574.84ZM992.791 592.48V595.4H989.311V602H985.751V595.4H974.311V592.76L982.351 574.84L985.431 576.12L978.191 592.48H985.791L986.111 585.28H989.311V592.48H992.791ZM1007.72 580.44C1009.64 580.44 1011.13 581.013 1012.2 582.16C1013.29 583.307 1013.84 584.88 1013.84 586.88V602H1010.16V587.4C1010.16 585.907 1009.87 584.853 1009.28 584.24C1008.72 583.627 1007.89 583.32 1006.8 583.32C1005.71 583.32 1004.73 583.64 1003.88 584.28C1003.03 584.92 1002.23 585.827 1001.48 587V602H997.8V572.48L1001.48 572.08V583.84C1003.13 581.573 1005.21 580.44 1007.72 580.44Z" fill="white"/>
<path d="M931.16 294.96C932.893 294.96 934.387 295.213 935.64 295.72C936.92 296.2 938.187 296.96 939.44 298L937.2 300.32C936.213 299.52 935.267 298.947 934.36 298.6C933.453 298.253 932.387 298.08 931.16 298.08C929.747 298.08 928.44 298.467 927.24 299.24C926.067 299.987 925.107 301.2 924.36 302.88C923.613 304.533 923.24 306.64 923.24 309.2C923.24 313.067 923.867 315.893 925.12 317.68C926.4 319.467 928.28 320.36 930.76 320.36C932.787 320.36 934.533 319.947 936 319.12V310.8H931.12L930.68 307.72H939.76V321.04C936.907 322.667 933.907 323.48 930.76 323.48C927.133 323.48 924.293 322.267 922.24 319.84C920.213 317.413 919.2 313.867 919.2 309.2C919.2 306.213 919.733 303.653 920.8 301.52C921.893 299.36 923.347 297.733 925.16 296.64C927 295.52 929 294.96 931.16 294.96ZM954.314 311.32H950.034V323H946.234V295.44H953.474C956.914 295.44 959.514 296.093 961.274 297.4C963.061 298.707 963.954 300.653 963.954 303.24C963.954 305.16 963.461 306.72 962.474 307.92C961.488 309.12 959.994 310.027 957.994 310.64L965.434 323H960.914L954.314 311.32ZM953.874 308.4C955.874 308.4 957.381 308 958.394 307.2C959.408 306.373 959.914 305.053 959.914 303.24C959.914 301.533 959.394 300.307 958.354 299.56C957.341 298.787 955.701 298.4 953.434 298.4H950.034V308.4H953.874ZM985.133 323L983.053 316.08H972.613L970.533 323H966.693L975.533 295.44H980.333L989.133 323H985.133ZM973.533 313H982.133L977.853 298.6L973.533 313ZM1000.62 295.44C1004.04 295.44 1006.68 296.16 1008.54 297.6C1010.41 299.013 1011.34 301.133 1011.34 303.96C1011.34 306.973 1010.37 309.213 1008.42 310.68C1006.48 312.147 1003.89 312.88 1000.66 312.88H997.183V323H993.383V295.44H1000.62ZM1000.5 309.88C1002.72 309.88 1004.4 309.453 1005.54 308.6C1006.72 307.747 1007.3 306.213 1007.3 304C1007.3 302.027 1006.72 300.6 1005.54 299.72C1004.4 298.84 1002.74 298.4 1000.58 298.4H997.183V309.88H1000.5ZM1032.03 323V310.08H1020.43V323H1016.63V295.44H1020.43V306.96H1032.03V295.44H1035.83V323H1032.03Z" fill="#A0A0A0"/>
<path d="M647.92 272.24V299H644.24V276.16L638 279.96L636.4 277.36L644.68 272.24H647.92ZM666.905 284.64C670.665 286.16 672.545 288.56 672.545 291.84C672.545 293.307 672.145 294.627 671.345 295.8C670.571 296.947 669.478 297.853 668.065 298.52C666.651 299.16 665.051 299.48 663.265 299.48C661.451 299.48 659.851 299.16 658.465 298.52C657.078 297.88 655.998 296.987 655.225 295.84C654.478 294.693 654.105 293.387 654.105 291.92C654.105 290.267 654.545 288.88 655.425 287.76C656.331 286.64 657.651 285.707 659.385 284.96C657.971 284.24 656.918 283.373 656.225 282.36C655.558 281.32 655.225 280.107 655.225 278.72C655.225 277.28 655.598 276.04 656.345 275C657.118 273.96 658.118 273.173 659.345 272.64C660.598 272.107 661.931 271.84 663.345 271.84C664.731 271.84 666.038 272.093 667.265 272.6C668.518 273.107 669.531 273.88 670.305 274.92C671.078 275.933 671.465 277.16 671.465 278.6C671.465 279.933 671.091 281.08 670.345 282.04C669.598 283 668.451 283.867 666.905 284.64ZM663.345 274.6C661.958 274.6 660.851 274.96 660.025 275.68C659.225 276.4 658.825 277.427 658.825 278.76C658.825 280.04 659.211 281.013 659.985 281.68C660.785 282.347 662.051 282.96 663.785 283.52L664.465 283.76C665.665 283.067 666.531 282.333 667.065 281.56C667.598 280.787 667.865 279.84 667.865 278.72C667.865 277.467 667.465 276.467 666.665 275.72C665.891 274.973 664.785 274.6 663.345 274.6ZM663.305 296.56C664.958 296.56 666.265 296.133 667.225 295.28C668.211 294.427 668.705 293.293 668.705 291.88C668.705 290.92 668.518 290.12 668.145 289.48C667.771 288.813 667.171 288.24 666.345 287.76C665.518 287.253 664.358 286.747 662.865 286.24L661.865 285.88C660.531 286.52 659.545 287.333 658.905 288.32C658.265 289.28 657.945 290.48 657.945 291.92C657.945 293.387 658.425 294.533 659.385 295.36C660.345 296.16 661.651 296.56 663.305 296.56ZM679.096 293.92C679.896 293.92 680.563 294.187 681.096 294.72C681.629 295.253 681.896 295.907 681.896 296.68C681.896 297.453 681.629 298.12 681.096 298.68C680.563 299.213 679.896 299.48 679.096 299.48C678.323 299.48 677.669 299.213 677.136 298.68C676.603 298.12 676.336 297.453 676.336 296.68C676.336 295.907 676.603 295.253 677.136 294.72C677.669 294.187 678.323 293.92 679.096 293.92ZM679.096 279.2C679.896 279.2 680.563 279.467 681.096 280C681.629 280.533 681.896 281.187 681.896 281.96C681.896 282.733 681.629 283.4 681.096 283.96C680.563 284.493 679.896 284.76 679.096 284.76C678.323 284.76 677.669 284.493 677.136 283.96C676.603 283.4 676.336 282.733 676.336 281.96C676.336 281.187 676.603 280.533 677.136 280C677.669 279.467 678.323 279.2 679.096 279.2ZM703.83 289.48V292.4H700.35V299H696.79V292.4H685.35V289.76L693.39 271.84L696.47 273.12L689.23 289.48H696.83L697.15 282.28H700.35V289.48H703.83ZM725.119 289.48V292.4H721.639V299H718.079V292.4H706.639V289.76L714.679 271.84L717.759 273.12L710.519 289.48H718.119L718.439 282.28H721.639V289.48H725.119Z" fill="#A0A0A0"/>
<path d="M851.24 454.8C852.26 454.8 853.19 455.04 854.03 455.52C854.87 456 855.54 456.72 856.04 457.68C856.54 458.64 856.79 459.81 856.79 461.19C856.79 462.61 856.5 463.87 855.92 464.97C855.36 466.05 854.59 466.89 853.61 467.49C852.65 468.07 851.58 468.36 850.4 468.36C848.06 468.36 846.35 467.5 845.27 465.78C844.19 464.04 843.65 461.64 843.65 458.58C843.65 456.4 843.95 454.49 844.55 452.85C845.17 451.19 846.05 449.91 847.19 449.01C848.33 448.09 849.68 447.63 851.24 447.63C852.76 447.63 854.14 448.04 855.38 448.86L854.3 450.69C853.36 450.11 852.33 449.82 851.21 449.82C849.77 449.82 848.63 450.51 847.79 451.89C846.95 453.27 846.49 455.12 846.41 457.44C847.65 455.68 849.26 454.8 851.24 454.8ZM850.4 466.17C851.56 466.17 852.45 465.73 853.07 464.85C853.69 463.97 854 462.78 854 461.28C854 458.42 852.92 456.99 850.76 456.99C849.88 456.99 849.07 457.24 848.33 457.74C847.59 458.22 846.96 458.89 846.44 459.75C846.5 461.95 846.84 463.57 847.46 464.61C848.1 465.65 849.08 466.17 850.4 466.17ZM868.286 451.83C869.726 451.83 870.846 452.26 871.646 453.12C872.466 453.98 872.876 455.16 872.876 456.66V468H870.116V457.05C870.116 455.93 869.896 455.14 869.456 454.68C869.036 454.22 868.416 453.99 867.596 453.99C866.776 453.99 866.046 454.23 865.406 454.71C864.766 455.19 864.166 455.87 863.606 456.75V468H860.846V445.86L863.606 445.56V454.38C864.846 452.68 866.406 451.83 868.286 451.83ZM848.84 483.63C850.04 483.63 851.09 483.87 851.99 484.35C852.91 484.83 853.62 485.49 854.12 486.33C854.62 487.15 854.87 488.08 854.87 489.12C854.87 490.34 854.59 491.51 854.03 492.63C853.49 493.75 852.65 494.96 851.51 496.26C850.37 497.56 848.64 499.37 846.32 501.69H855.35L855.02 504H843.17V501.81C845.85 499.03 847.75 497 848.87 495.72C849.99 494.42 850.79 493.29 851.27 492.33C851.75 491.37 851.99 490.34 851.99 489.24C851.99 488.2 851.69 487.39 851.09 486.81C850.49 486.21 849.69 485.91 848.69 485.91C847.87 485.91 847.15 486.08 846.53 486.42C845.91 486.76 845.25 487.32 844.55 488.1L842.75 486.66C843.57 485.64 844.48 484.88 845.48 484.38C846.48 483.88 847.6 483.63 848.84 483.63ZM869.454 486.09H861.624V492C862.644 491.48 863.714 491.22 864.834 491.22C866.554 491.22 867.934 491.79 868.974 492.93C870.014 494.05 870.534 495.6 870.534 497.58C870.534 498.9 870.244 500.08 869.664 501.12C869.084 502.14 868.264 502.94 867.204 503.52C866.164 504.08 864.954 504.36 863.574 504.36C862.354 504.36 861.264 504.15 860.304 503.73C859.344 503.29 858.454 502.65 857.634 501.81L859.254 500.22C859.894 500.86 860.554 501.34 861.234 501.66C861.914 501.96 862.684 502.11 863.544 502.11C864.824 502.11 865.824 501.71 866.544 500.91C867.284 500.11 867.654 498.98 867.654 497.52C867.654 496.06 867.324 495 866.664 494.34C866.004 493.68 865.114 493.35 863.994 493.35C863.474 493.35 862.994 493.41 862.554 493.53C862.114 493.63 861.644 493.8 861.144 494.04H858.984V483.93H869.844L869.454 486.09ZM889.687 482.67L891.607 483.93L877.717 504.93L875.797 503.67L889.687 482.67ZM877.507 483.63C878.947 483.63 880.117 484.09 881.017 485.01C881.937 485.93 882.397 487.16 882.397 488.7C882.397 490.24 881.937 491.47 881.017 492.39C880.117 493.31 878.947 493.77 877.507 493.77C876.087 493.77 874.917 493.31 873.997 492.39C873.097 491.47 872.647 490.24 872.647 488.7C872.647 487.16 873.097 485.93 873.997 485.01C874.917 484.09 876.087 483.63 877.507 483.63ZM877.507 485.49C876.627 485.49 875.997 485.79 875.617 486.39C875.257 486.99 875.077 487.76 875.077 488.7C875.077 489.62 875.257 490.39 875.617 491.01C875.997 491.61 876.627 491.91 877.507 491.91C879.127 491.91 879.937 490.84 879.937 488.7C879.937 487.78 879.757 487.02 879.397 486.42C879.037 485.8 878.407 485.49 877.507 485.49ZM889.867 494.22C891.307 494.22 892.477 494.68 893.377 495.6C894.277 496.52 894.727 497.75 894.727 499.29C894.727 500.83 894.277 502.06 893.377 502.98C892.477 503.9 891.307 504.36 889.867 504.36C888.427 504.36 887.247 503.9 886.327 502.98C885.427 502.06 884.977 500.83 884.977 499.29C884.977 497.75 885.427 496.52 886.327 495.6C887.247 494.68 888.427 494.22 889.867 494.22ZM889.867 496.11C888.987 496.11 888.357 496.41 887.977 497.01C887.617 497.59 887.437 498.35 887.437 499.29C887.437 500.21 887.617 500.98 887.977 501.6C888.357 502.2 888.987 502.5 889.867 502.5C891.487 502.5 892.297 501.43 892.297 499.29C892.297 498.37 892.117 497.61 891.757 497.01C891.397 496.41 890.767 496.11 889.867 496.11Z" fill="black"/>
<path d="M792.24 616.8C793.26 616.8 794.19 617.04 795.03 617.52C795.87 618 796.54 618.72 797.04 619.68C797.54 620.64 797.79 621.81 797.79 623.19C797.79 624.61 797.5 625.87 796.92 626.97C796.36 628.05 795.59 628.89 794.61 629.49C793.65 630.07 792.58 630.36 791.4 630.36C789.06 630.36 787.35 629.5 786.27 627.78C785.19 626.04 784.65 623.64 784.65 620.58C784.65 618.4 784.95 616.49 785.55 614.85C786.17 613.19 787.05 611.91 788.19 611.01C789.33 610.09 790.68 609.63 792.24 609.63C793.76 609.63 795.14 610.04 796.38 610.86L795.3 612.69C794.36 612.11 793.33 611.82 792.21 611.82C790.77 611.82 789.63 612.51 788.79 613.89C787.95 615.27 787.49 617.12 787.41 619.44C788.65 617.68 790.26 616.8 792.24 616.8ZM791.4 628.17C792.56 628.17 793.45 627.73 794.07 626.85C794.69 625.97 795 624.78 795 623.28C795 620.42 793.92 618.99 791.76 618.99C790.88 618.99 790.07 619.24 789.33 619.74C788.59 620.22 787.96 620.89 787.44 621.75C787.5 623.95 787.84 625.57 788.46 626.61C789.1 627.65 790.08 628.17 791.4 628.17ZM809.286 613.83C810.726 613.83 811.846 614.26 812.646 615.12C813.466 615.98 813.876 617.16 813.876 618.66V630H811.116V619.05C811.116 617.93 810.896 617.14 810.456 616.68C810.036 616.22 809.416 615.99 808.596 615.99C807.776 615.99 807.046 616.23 806.406 616.71C805.766 617.19 805.166 617.87 804.606 618.75V630H801.846V607.86L804.606 607.56V616.38C805.846 614.68 807.406 613.83 809.286 613.83ZM792.69 645.93V666H789.93V648.87L785.25 651.72L784.05 649.77L790.26 645.93H792.69ZM804.349 645.63C806.569 645.63 808.239 646.52 809.359 648.3C810.499 650.06 811.069 652.62 811.069 655.98C811.069 659.34 810.499 661.91 809.359 663.69C808.239 665.47 806.569 666.36 804.349 666.36C802.129 666.36 800.449 665.47 799.309 663.69C798.189 661.91 797.629 659.34 797.629 655.98C797.629 652.62 798.189 650.06 799.309 648.3C800.449 646.52 802.129 645.63 804.349 645.63ZM804.349 647.82C803.049 647.82 802.079 648.46 801.439 649.74C800.819 651.02 800.509 653.1 800.509 655.98C800.509 658.86 800.819 660.95 801.439 662.25C802.079 663.53 803.049 664.17 804.349 664.17C805.629 664.17 806.589 663.53 807.229 662.25C807.869 660.95 808.189 658.86 808.189 655.98C808.189 653.12 807.869 651.05 807.229 649.77C806.589 648.47 805.629 647.82 804.349 647.82ZM816.277 662.19C816.877 662.19 817.377 662.39 817.777 662.79C818.177 663.19 818.377 663.68 818.377 664.26C818.377 664.84 818.177 665.34 817.777 665.76C817.377 666.16 816.877 666.36 816.277 666.36C815.697 666.36 815.207 666.16 814.807 665.76C814.407 665.34 814.207 664.84 814.207 664.26C814.207 663.68 814.407 663.19 814.807 662.79C815.207 662.39 815.697 662.19 816.277 662.19ZM833.978 658.86V661.05H831.368V666H828.698V661.05H820.118V659.07L826.148 645.63L828.458 646.59L823.028 658.86H828.728L828.968 653.46H831.368V658.86H833.978ZM841.139 645.63C842.339 645.63 843.389 645.87 844.289 646.35C845.209 646.83 845.919 647.49 846.419 648.33C846.919 649.15 847.169 650.08 847.169 651.12C847.169 652.34 846.889 653.51 846.329 654.63C845.789 655.75 844.949 656.96 843.809 658.26C842.669 659.56 840.939 661.37 838.619 663.69H847.649L847.319 666H835.469V663.81C838.149 661.03 840.049 659 841.169 657.72C842.289 656.42 843.089 655.29 843.569 654.33C844.049 653.37 844.289 652.34 844.289 651.24C844.289 650.2 843.989 649.39 843.389 648.81C842.789 648.21 841.989 647.91 840.989 647.91C840.169 647.91 839.449 648.08 838.829 648.42C838.209 648.76 837.549 649.32 836.849 650.1L835.049 648.66C835.869 647.64 836.779 646.88 837.779 646.38C838.779 645.88 839.899 645.63 841.139 645.63ZM867.542 644.67L869.462 645.93L855.572 666.93L853.652 665.67L867.542 644.67ZM855.362 645.63C856.802 645.63 857.972 646.09 858.872 647.01C859.792 647.93 860.252 649.16 860.252 650.7C860.252 652.24 859.792 653.47 858.872 654.39C857.972 655.31 856.802 655.77 855.362 655.77C853.942 655.77 852.772 655.31 851.852 654.39C850.952 653.47 850.502 652.24 850.502 650.7C850.502 649.16 850.952 647.93 851.852 647.01C852.772 646.09 853.942 645.63 855.362 645.63ZM855.362 647.49C854.482 647.49 853.852 647.79 853.472 648.39C853.112 648.99 852.932 649.76 852.932 650.7C852.932 651.62 853.112 652.39 853.472 653.01C853.852 653.61 854.482 653.91 855.362 653.91C856.982 653.91 857.792 652.84 857.792 650.7C857.792 649.78 857.612 649.02 857.252 648.42C856.892 647.8 856.262 647.49 855.362 647.49ZM867.722 656.22C869.162 656.22 870.332 656.68 871.232 657.6C872.132 658.52 872.582 659.75 872.582 661.29C872.582 662.83 872.132 664.06 871.232 664.98C870.332 665.9 869.162 666.36 867.722 666.36C866.282 666.36 865.102 665.9 864.182 664.98C863.282 664.06 862.832 662.83 862.832 661.29C862.832 659.75 863.282 658.52 864.182 657.6C865.102 656.68 866.282 656.22 867.722 656.22ZM867.722 658.11C866.842 658.11 866.212 658.41 865.832 659.01C865.472 659.59 865.292 660.35 865.292 661.29C865.292 662.21 865.472 662.98 865.832 663.6C866.212 664.2 866.842 664.5 867.722 664.5C869.342 664.5 870.152 663.43 870.152 661.29C870.152 660.37 869.972 659.61 869.612 659.01C869.252 658.41 868.622 658.11 867.722 658.11Z" fill="black"/>
<path d="M1074.24 454.8C1075.26 454.8 1076.19 455.04 1077.03 455.52C1077.87 456 1078.54 456.72 1079.04 457.68C1079.54 458.64 1079.79 459.81 1079.79 461.19C1079.79 462.61 1079.5 463.87 1078.92 464.97C1078.36 466.05 1077.59 466.89 1076.61 467.49C1075.65 468.07 1074.58 468.36 1073.4 468.36C1071.06 468.36 1069.35 467.5 1068.27 465.78C1067.19 464.04 1066.65 461.64 1066.65 458.58C1066.65 456.4 1066.95 454.49 1067.55 452.85C1068.17 451.19 1069.05 449.91 1070.19 449.01C1071.33 448.09 1072.68 447.63 1074.24 447.63C1075.76 447.63 1077.14 448.04 1078.38 448.86L1077.3 450.69C1076.36 450.11 1075.33 449.82 1074.21 449.82C1072.77 449.82 1071.63 450.51 1070.79 451.89C1069.95 453.27 1069.49 455.12 1069.41 457.44C1070.65 455.68 1072.26 454.8 1074.24 454.8ZM1073.4 466.17C1074.56 466.17 1075.45 465.73 1076.07 464.85C1076.69 463.97 1077 462.78 1077 461.28C1077 458.42 1075.92 456.99 1073.76 456.99C1072.88 456.99 1072.07 457.24 1071.33 457.74C1070.59 458.22 1069.96 458.89 1069.44 459.75C1069.5 461.95 1069.84 463.57 1070.46 464.61C1071.1 465.65 1072.08 466.17 1073.4 466.17ZM1091.29 451.83C1092.73 451.83 1093.85 452.26 1094.65 453.12C1095.47 453.98 1095.88 455.16 1095.88 456.66V468H1093.12V457.05C1093.12 455.93 1092.9 455.14 1092.46 454.68C1092.04 454.22 1091.42 453.99 1090.6 453.99C1089.78 453.99 1089.05 454.23 1088.41 454.71C1087.77 455.19 1087.17 455.87 1086.61 456.75V468H1083.85V445.86L1086.61 445.56V454.38C1087.85 452.68 1089.41 451.83 1091.29 451.83ZM1071.84 483.63C1073.04 483.63 1074.09 483.87 1074.99 484.35C1075.91 484.83 1076.62 485.49 1077.12 486.33C1077.62 487.15 1077.87 488.08 1077.87 489.12C1077.87 490.34 1077.59 491.51 1077.03 492.63C1076.49 493.75 1075.65 494.96 1074.51 496.26C1073.37 497.56 1071.64 499.37 1069.32 501.69H1078.35L1078.02 504H1066.17V501.81C1068.85 499.03 1070.75 497 1071.87 495.72C1072.99 494.42 1073.79 493.29 1074.27 492.33C1074.75 491.37 1074.99 490.34 1074.99 489.24C1074.99 488.2 1074.69 487.39 1074.09 486.81C1073.49 486.21 1072.69 485.91 1071.69 485.91C1070.87 485.91 1070.15 486.08 1069.53 486.42C1068.91 486.76 1068.25 487.32 1067.55 488.1L1065.75 486.66C1066.57 485.64 1067.48 484.88 1068.48 484.38C1069.48 483.88 1070.6 483.63 1071.84 483.63ZM1092.45 486.09H1084.62V492C1085.64 491.48 1086.71 491.22 1087.83 491.22C1089.55 491.22 1090.93 491.79 1091.97 492.93C1093.01 494.05 1093.53 495.6 1093.53 497.58C1093.53 498.9 1093.24 500.08 1092.66 501.12C1092.08 502.14 1091.26 502.94 1090.2 503.52C1089.16 504.08 1087.95 504.36 1086.57 504.36C1085.35 504.36 1084.26 504.15 1083.3 503.73C1082.34 503.29 1081.45 502.65 1080.63 501.81L1082.25 500.22C1082.89 500.86 1083.55 501.34 1084.23 501.66C1084.91 501.96 1085.68 502.11 1086.54 502.11C1087.82 502.11 1088.82 501.71 1089.54 500.91C1090.28 500.11 1090.65 498.98 1090.65 497.52C1090.65 496.06 1090.32 495 1089.66 494.34C1089 493.68 1088.11 493.35 1086.99 493.35C1086.47 493.35 1085.99 493.41 1085.55 493.53C1085.11 493.63 1084.64 493.8 1084.14 494.04H1081.98V483.93H1092.84L1092.45 486.09ZM1112.69 482.67L1114.61 483.93L1100.72 504.93L1098.8 503.67L1112.69 482.67ZM1100.51 483.63C1101.95 483.63 1103.12 484.09 1104.02 485.01C1104.94 485.93 1105.4 487.16 1105.4 488.7C1105.4 490.24 1104.94 491.47 1104.02 492.39C1103.12 493.31 1101.95 493.77 1100.51 493.77C1099.09 493.77 1097.92 493.31 1097 492.39C1096.1 491.47 1095.65 490.24 1095.65 488.7C1095.65 487.16 1096.1 485.93 1097 485.01C1097.92 484.09 1099.09 483.63 1100.51 483.63ZM1100.51 485.49C1099.63 485.49 1099 485.79 1098.62 486.39C1098.26 486.99 1098.08 487.76 1098.08 488.7C1098.08 489.62 1098.26 490.39 1098.62 491.01C1099 491.61 1099.63 491.91 1100.51 491.91C1102.13 491.91 1102.94 490.84 1102.94 488.7C1102.94 487.78 1102.76 487.02 1102.4 486.42C1102.04 485.8 1101.41 485.49 1100.51 485.49ZM1112.87 494.22C1114.31 494.22 1115.48 494.68 1116.38 495.6C1117.28 496.52 1117.73 497.75 1117.73 499.29C1117.73 500.83 1117.28 502.06 1116.38 502.98C1115.48 503.9 1114.31 504.36 1112.87 504.36C1111.43 504.36 1110.25 503.9 1109.33 502.98C1108.43 502.06 1107.98 500.83 1107.98 499.29C1107.98 497.75 1108.43 496.52 1109.33 495.6C1110.25 494.68 1111.43 494.22 1112.87 494.22ZM1112.87 496.11C1111.99 496.11 1111.36 496.41 1110.98 497.01C1110.62 497.59 1110.44 498.35 1110.44 499.29C1110.44 500.21 1110.62 500.98 1110.98 501.6C1111.36 502.2 1111.99 502.5 1112.87 502.5C1114.49 502.5 1115.3 501.43 1115.3 499.29C1115.3 498.37 1115.12 497.61 1114.76 497.01C1114.4 496.41 1113.77 496.11 1112.87 496.11Z" fill="black"/>
<path d="M1128.72 595.937V614H1126.24V598.583L1122.03 601.148L1120.95 599.393L1126.53 595.937H1128.72ZM1140.94 599.447C1142.24 599.447 1143.25 599.834 1143.97 600.608C1144.7 601.382 1145.07 602.444 1145.07 603.794V614H1142.59V604.145C1142.59 603.137 1142.39 602.426 1141.99 602.012C1141.62 601.598 1141.06 601.391 1140.32 601.391C1139.58 601.391 1138.93 601.607 1138.35 602.039C1137.77 602.471 1137.23 603.083 1136.73 603.875V614H1134.25V594.074L1136.73 593.804V601.742C1137.85 600.212 1139.25 599.447 1140.94 599.447ZM1153.58 595.667C1154.69 595.667 1155.65 595.874 1156.44 596.288C1157.25 596.702 1157.86 597.26 1158.27 597.962C1158.71 598.664 1158.92 599.429 1158.92 600.257C1158.92 601.355 1158.6 602.264 1157.95 602.984C1157.32 603.686 1156.47 604.163 1155.41 604.415C1156.62 604.523 1157.6 604.955 1158.35 605.711C1159.11 606.467 1159.49 607.493 1159.49 608.789C1159.49 609.833 1159.24 610.778 1158.73 611.624C1158.23 612.47 1157.51 613.136 1156.57 613.622C1155.64 614.09 1154.56 614.324 1153.33 614.324C1152.23 614.324 1151.23 614.126 1150.31 613.73C1149.39 613.316 1148.59 612.704 1147.91 611.894L1149.39 610.517C1149.98 611.129 1150.59 611.579 1151.2 611.867C1151.83 612.155 1152.51 612.299 1153.25 612.299C1154.39 612.299 1155.28 611.984 1155.92 611.354C1156.57 610.706 1156.9 609.842 1156.9 608.762C1156.9 607.574 1156.59 606.737 1155.98 606.251C1155.37 605.765 1154.48 605.522 1153.31 605.522H1151.96L1152.25 603.605H1153.17C1154.11 603.605 1154.88 603.326 1155.49 602.768C1156.12 602.21 1156.44 601.427 1156.44 600.419C1156.44 599.573 1156.17 598.907 1155.63 598.421C1155.09 597.917 1154.36 597.665 1153.44 597.665C1152.74 597.665 1152.09 597.791 1151.5 598.043C1150.92 598.295 1150.33 598.709 1149.71 599.285L1148.42 597.8C1149.95 596.378 1151.67 595.667 1153.58 595.667ZM1168.51 595.667C1170.51 595.667 1172.01 596.468 1173.02 598.07C1174.04 599.654 1174.56 601.958 1174.56 604.982C1174.56 608.006 1174.04 610.319 1173.02 611.921C1172.01 613.523 1170.51 614.324 1168.51 614.324C1166.51 614.324 1165 613.523 1163.97 611.921C1162.96 610.319 1162.46 608.006 1162.46 604.982C1162.46 601.958 1162.96 599.654 1163.97 598.07C1165 596.468 1166.51 595.667 1168.51 595.667ZM1168.51 597.638C1167.34 597.638 1166.46 598.214 1165.89 599.366C1165.33 600.518 1165.05 602.39 1165.05 604.982C1165.05 607.574 1165.33 609.455 1165.89 610.625C1166.46 611.777 1167.34 612.353 1168.51 612.353C1169.66 612.353 1170.52 611.777 1171.1 610.625C1171.68 609.455 1171.96 607.574 1171.96 604.982C1171.96 602.408 1171.68 600.545 1171.1 599.393C1170.52 598.223 1169.66 597.638 1168.51 597.638ZM1128.32 634.12C1129.23 634.12 1130.07 634.336 1130.83 634.768C1131.58 635.2 1132.19 635.848 1132.64 636.712C1133.09 637.576 1133.31 638.629 1133.31 639.871C1133.31 641.149 1133.05 642.283 1132.53 643.273C1132.02 644.245 1131.33 645.001 1130.45 645.541C1129.59 646.063 1128.62 646.324 1127.56 646.324C1125.45 646.324 1123.92 645.55 1122.94 644.002C1121.97 642.436 1121.49 640.276 1121.49 637.522C1121.49 635.56 1121.76 633.841 1122.3 632.365C1122.85 630.871 1123.65 629.719 1124.67 628.909C1125.7 628.081 1126.91 627.667 1128.32 627.667C1129.68 627.667 1130.93 628.036 1132.04 628.774L1131.07 630.421C1130.22 629.899 1129.3 629.638 1128.29 629.638C1126.99 629.638 1125.97 630.259 1125.21 631.501C1124.46 632.743 1124.04 634.408 1123.97 636.496C1125.09 634.912 1126.53 634.12 1128.32 634.12ZM1127.56 644.353C1128.6 644.353 1129.41 643.957 1129.96 643.165C1130.52 642.373 1130.8 641.302 1130.8 639.952C1130.8 637.378 1129.83 636.091 1127.88 636.091C1127.09 636.091 1126.36 636.316 1125.7 636.766C1125.03 637.198 1124.46 637.801 1124 638.575C1124.05 640.555 1124.36 642.013 1124.91 642.949C1125.49 643.885 1126.37 644.353 1127.56 644.353ZM1137.61 642.571C1138.15 642.571 1138.6 642.751 1138.96 643.111C1139.32 643.471 1139.5 643.912 1139.5 644.434C1139.5 644.956 1139.32 645.406 1138.96 645.784C1138.6 646.144 1138.15 646.324 1137.61 646.324C1137.09 646.324 1136.65 646.144 1136.29 645.784C1135.93 645.406 1135.75 644.956 1135.75 644.434C1135.75 643.912 1135.93 643.471 1136.29 643.111C1136.65 642.751 1137.09 642.571 1137.61 642.571ZM1152.49 629.881H1145.44V635.2C1146.36 634.732 1147.32 634.498 1148.33 634.498C1149.88 634.498 1151.12 635.011 1152.05 636.037C1152.99 637.045 1153.46 638.44 1153.46 640.222C1153.46 641.41 1153.2 642.472 1152.68 643.408C1152.15 644.326 1151.42 645.046 1150.46 645.568C1149.53 646.072 1148.44 646.324 1147.19 646.324C1146.1 646.324 1145.12 646.135 1144.25 645.757C1143.39 645.361 1142.59 644.785 1141.85 644.029L1143.31 642.598C1143.88 643.174 1144.48 643.606 1145.09 643.894C1145.7 644.164 1146.39 644.299 1147.17 644.299C1148.32 644.299 1149.22 643.939 1149.87 643.219C1150.53 642.499 1150.87 641.482 1150.87 640.168C1150.87 638.854 1150.57 637.9 1149.98 637.306C1149.38 636.712 1148.58 636.415 1147.57 636.415C1147.1 636.415 1146.67 636.469 1146.28 636.577C1145.88 636.667 1145.46 636.82 1145.01 637.036H1143.06V627.937H1152.84L1152.49 629.881ZM1170.7 626.803L1172.42 627.937L1159.92 646.837L1158.2 645.703L1170.7 626.803ZM1159.73 627.667C1161.03 627.667 1162.08 628.081 1162.89 628.909C1163.72 629.737 1164.14 630.844 1164.14 632.23C1164.14 633.616 1163.72 634.723 1162.89 635.551C1162.08 636.379 1161.03 636.793 1159.73 636.793C1158.46 636.793 1157.4 636.379 1156.58 635.551C1155.77 634.723 1155.36 633.616 1155.36 632.23C1155.36 630.844 1155.77 629.737 1156.58 628.909C1157.4 628.081 1158.46 627.667 1159.73 627.667ZM1159.73 629.341C1158.94 629.341 1158.38 629.611 1158.03 630.151C1157.71 630.691 1157.55 631.384 1157.55 632.23C1157.55 633.058 1157.71 633.751 1158.03 634.309C1158.38 634.849 1158.94 635.119 1159.73 635.119C1161.19 635.119 1161.92 634.156 1161.92 632.23C1161.92 631.402 1161.76 630.718 1161.44 630.178C1161.11 629.62 1160.54 629.341 1159.73 629.341ZM1170.86 637.198C1172.15 637.198 1173.21 637.612 1174.02 638.44C1174.83 639.268 1175.23 640.375 1175.23 641.761C1175.23 643.147 1174.83 644.254 1174.02 645.082C1173.21 645.91 1172.15 646.324 1170.86 646.324C1169.56 646.324 1168.5 645.91 1167.67 645.082C1166.86 644.254 1166.46 643.147 1166.46 641.761C1166.46 640.375 1166.86 639.268 1167.67 638.44C1168.5 637.612 1169.56 637.198 1170.86 637.198ZM1170.86 638.899C1170.07 638.899 1169.5 639.169 1169.16 639.709C1168.83 640.231 1168.67 640.915 1168.67 641.761C1168.67 642.589 1168.83 643.282 1169.16 643.84C1169.5 644.38 1170.07 644.65 1170.86 644.65C1172.32 644.65 1173.05 643.687 1173.05 641.761C1173.05 640.933 1172.88 640.249 1172.56 639.709C1172.24 639.169 1171.67 638.899 1170.86 638.899Z" fill="black"/>
<path d="M1050.55 716.574V718.545H1048.21V723H1045.8V718.545H1038.08V716.763L1043.51 704.667L1045.59 705.531L1040.7 716.574H1045.83L1046.05 711.714H1048.21V716.574H1050.55ZM1060.63 708.447C1061.93 708.447 1062.94 708.834 1063.66 709.608C1064.39 710.382 1064.76 711.444 1064.76 712.794V723H1062.28V713.145C1062.28 712.137 1062.08 711.426 1061.68 711.012C1061.31 710.598 1060.75 710.391 1060.01 710.391C1059.27 710.391 1058.62 710.607 1058.04 711.039C1057.46 711.471 1056.92 712.083 1056.42 712.875V723H1053.94V703.074L1056.42 702.804V710.742C1057.54 709.212 1058.94 708.447 1060.63 708.447ZM1073.27 704.667C1074.38 704.667 1075.34 704.874 1076.13 705.288C1076.94 705.702 1077.55 706.26 1077.96 706.962C1078.4 707.664 1078.61 708.429 1078.61 709.257C1078.61 710.355 1078.29 711.264 1077.64 711.984C1077.01 712.686 1076.16 713.163 1075.1 713.415C1076.31 713.523 1077.29 713.955 1078.04 714.711C1078.8 715.467 1079.18 716.493 1079.18 717.789C1079.18 718.833 1078.93 719.778 1078.42 720.624C1077.92 721.47 1077.2 722.136 1076.26 722.622C1075.33 723.09 1074.25 723.324 1073.02 723.324C1071.92 723.324 1070.92 723.126 1070 722.73C1069.08 722.316 1068.28 721.704 1067.6 720.894L1069.08 719.517C1069.67 720.129 1070.28 720.579 1070.89 720.867C1071.52 721.155 1072.2 721.299 1072.94 721.299C1074.08 721.299 1074.97 720.984 1075.61 720.354C1076.26 719.706 1076.59 718.842 1076.59 717.762C1076.59 716.574 1076.28 715.737 1075.67 715.251C1075.06 714.765 1074.17 714.522 1073 714.522H1071.65L1071.94 712.605H1072.86C1073.8 712.605 1074.57 712.326 1075.18 711.768C1075.81 711.21 1076.13 710.427 1076.13 709.419C1076.13 708.573 1075.86 707.907 1075.32 707.421C1074.78 706.917 1074.05 706.665 1073.13 706.665C1072.43 706.665 1071.78 706.791 1071.19 707.043C1070.61 707.295 1070.02 707.709 1069.4 708.285L1068.11 706.8C1069.64 705.378 1071.36 704.667 1073.27 704.667ZM1088.2 704.667C1090.2 704.667 1091.7 705.468 1092.71 707.07C1093.73 708.654 1094.25 710.958 1094.25 713.982C1094.25 717.006 1093.73 719.319 1092.71 720.921C1091.7 722.523 1090.2 723.324 1088.2 723.324C1086.2 723.324 1084.69 722.523 1083.66 720.921C1082.65 719.319 1082.15 717.006 1082.15 713.982C1082.15 710.958 1082.65 708.654 1083.66 707.07C1084.69 705.468 1086.2 704.667 1088.2 704.667ZM1088.2 706.638C1087.03 706.638 1086.15 707.214 1085.58 708.366C1085.02 709.518 1084.74 711.39 1084.74 713.982C1084.74 716.574 1085.02 718.455 1085.58 719.625C1086.15 720.777 1087.03 721.353 1088.2 721.353C1089.35 721.353 1090.21 720.777 1090.79 719.625C1091.37 718.455 1091.65 716.574 1091.65 713.982C1091.65 711.408 1091.37 709.545 1090.79 708.393C1090.21 707.223 1089.35 706.638 1088.2 706.638ZM1045.72 736.937V755H1043.24V739.583L1039.03 742.148L1037.95 740.393L1043.53 736.937H1045.72ZM1058.54 745.307C1061.07 746.333 1062.34 747.953 1062.34 750.167C1062.34 751.157 1062.07 752.048 1061.53 752.84C1061.01 753.614 1060.27 754.226 1059.32 754.676C1058.36 755.108 1057.28 755.324 1056.08 755.324C1054.85 755.324 1053.77 755.108 1052.84 754.676C1051.9 754.244 1051.17 753.641 1050.65 752.867C1050.15 752.093 1049.9 751.211 1049.9 750.221C1049.9 749.105 1050.19 748.169 1050.79 747.413C1051.4 746.657 1052.29 746.027 1053.46 745.523C1052.51 745.037 1051.79 744.452 1051.33 743.768C1050.88 743.066 1050.65 742.247 1050.65 741.311C1050.65 740.339 1050.9 739.502 1051.41 738.8C1051.93 738.098 1052.6 737.567 1053.43 737.207C1054.28 736.847 1055.18 736.667 1056.13 736.667C1057.07 736.667 1057.95 736.838 1058.78 737.18C1059.62 737.522 1060.31 738.044 1060.83 738.746C1061.35 739.43 1061.61 740.258 1061.61 741.23C1061.61 742.13 1061.36 742.904 1060.86 743.552C1060.35 744.2 1059.58 744.785 1058.54 745.307ZM1056.13 738.53C1055.2 738.53 1054.45 738.773 1053.89 739.259C1053.35 739.745 1053.08 740.438 1053.08 741.338C1053.08 742.202 1053.34 742.859 1053.86 743.309C1054.4 743.759 1055.26 744.173 1056.43 744.551L1056.89 744.713C1057.7 744.245 1058.28 743.75 1058.64 743.228C1059 742.706 1059.18 742.067 1059.18 741.311C1059.18 740.465 1058.91 739.79 1058.37 739.286C1057.85 738.782 1057.1 738.53 1056.13 738.53ZM1056.11 753.353C1057.22 753.353 1058.1 753.065 1058.75 752.489C1059.42 751.913 1059.75 751.148 1059.75 750.194C1059.75 749.546 1059.62 749.006 1059.37 748.574C1059.12 748.124 1058.72 747.737 1058.16 747.413C1057.6 747.071 1056.82 746.729 1055.81 746.387L1055.13 746.144C1054.23 746.576 1053.57 747.125 1053.14 747.791C1052.7 748.439 1052.49 749.249 1052.49 750.221C1052.49 751.211 1052.81 751.985 1053.46 752.543C1054.11 753.083 1054.99 753.353 1056.11 753.353ZM1066.76 751.571C1067.3 751.571 1067.75 751.751 1068.11 752.111C1068.47 752.471 1068.65 752.912 1068.65 753.434C1068.65 753.956 1068.47 754.406 1068.11 754.784C1067.75 755.144 1067.3 755.324 1066.76 755.324C1066.24 755.324 1065.8 755.144 1065.44 754.784C1065.08 754.406 1064.9 753.956 1064.9 753.434C1064.9 752.912 1065.08 752.471 1065.44 752.111C1065.8 751.751 1066.24 751.571 1066.76 751.571ZM1081.22 736.937V738.8L1074.47 755.27L1072.2 754.514L1078.71 738.962H1070.71V736.937H1081.22ZM1092.98 738.881H1085.93V744.2C1086.85 743.732 1087.81 743.498 1088.82 743.498C1090.37 743.498 1091.61 744.011 1092.55 745.037C1093.48 746.045 1093.95 747.44 1093.95 749.222C1093.95 750.41 1093.69 751.472 1093.17 752.408C1092.65 753.326 1091.91 754.046 1090.95 754.568C1090.02 755.072 1088.93 755.324 1087.69 755.324C1086.59 755.324 1085.61 755.135 1084.74 754.757C1083.88 754.361 1083.08 753.785 1082.34 753.029L1083.8 751.598C1084.38 752.174 1084.97 752.606 1085.58 752.894C1086.19 753.164 1086.89 753.299 1087.66 753.299C1088.81 753.299 1089.71 752.939 1090.36 752.219C1091.03 751.499 1091.36 750.482 1091.36 749.168C1091.36 747.854 1091.06 746.9 1090.47 746.306C1089.87 745.712 1089.07 745.415 1088.07 745.415C1087.6 745.415 1087.17 745.469 1086.77 745.577C1086.37 745.667 1085.95 745.82 1085.5 746.036H1083.56V736.937H1093.33L1092.98 738.881ZM1111.19 735.803L1112.92 736.937L1100.42 755.837L1098.69 754.703L1111.19 735.803ZM1100.23 736.667C1101.52 736.667 1102.58 737.081 1103.39 737.909C1104.21 738.737 1104.63 739.844 1104.63 741.23C1104.63 742.616 1104.21 743.723 1103.39 744.551C1102.58 745.379 1101.52 745.793 1100.23 745.793C1098.95 745.793 1097.9 745.379 1097.07 744.551C1096.26 743.723 1095.85 742.616 1095.85 741.23C1095.85 739.844 1096.26 738.737 1097.07 737.909C1097.9 737.081 1098.95 736.667 1100.23 736.667ZM1100.23 738.341C1099.44 738.341 1098.87 738.611 1098.53 739.151C1098.2 739.691 1098.04 740.384 1098.04 741.23C1098.04 742.058 1098.2 742.751 1098.53 743.309C1098.87 743.849 1099.44 744.119 1100.23 744.119C1101.69 744.119 1102.41 743.156 1102.41 741.23C1102.41 740.402 1102.25 739.718 1101.93 739.178C1101.6 738.62 1101.04 738.341 1100.23 738.341ZM1111.35 746.198C1112.65 746.198 1113.7 746.612 1114.51 747.44C1115.32 748.268 1115.73 749.375 1115.73 750.761C1115.73 752.147 1115.32 753.254 1114.51 754.082C1113.7 754.91 1112.65 755.324 1111.35 755.324C1110.06 755.324 1108.99 754.91 1108.17 754.082C1107.36 753.254 1106.95 752.147 1106.95 750.761C1106.95 749.375 1107.36 748.268 1108.17 747.44C1108.99 746.612 1110.06 746.198 1111.35 746.198ZM1111.35 747.899C1110.56 747.899 1109.99 748.169 1109.65 748.709C1109.33 749.231 1109.16 749.915 1109.16 750.761C1109.16 751.589 1109.33 752.282 1109.65 752.84C1109.99 753.38 1110.56 753.65 1111.35 753.65C1112.81 753.65 1113.54 752.687 1113.54 750.761C1113.54 749.933 1113.38 749.249 1113.05 748.709C1112.73 748.169 1112.16 747.899 1111.35 747.899Z" fill="black"/>
<rect x="379" y="65" width="302" height="83" rx="5" fill="#FF60C9"/>
<rect x="761" y="65" width="218" height="83" rx="5" fill="#FF60C9"/>
<rect x="679" y="65" width="82" height="83" rx="5" fill="#F1FF4A"/>
<rect x="79" y="65" width="300" height="83" rx="5" fill="#00F0FF"/>
<rect x="1206" y="65" width="74" height="83" rx="5" fill="#00F0FF"/>
<path d="M345.28 295.44L344.88 298.68H337.24V323H333.44V298.68H325.6V295.44H345.28ZM362.352 323L360.272 316.08H349.832L347.752 323H343.912L352.752 295.44H357.552L366.352 323H362.352ZM350.752 313H359.352L355.072 298.6L350.752 313ZM377.402 294.96C379.242 294.96 380.815 295.227 382.122 295.76C383.428 296.267 384.695 297.067 385.922 298.16L383.842 300.48C382.802 299.653 381.775 299.053 380.762 298.68C379.775 298.28 378.708 298.08 377.562 298.08C376.122 298.08 374.935 298.413 374.002 299.08C373.068 299.747 372.602 300.72 372.602 302C372.602 302.8 372.762 303.48 373.082 304.04C373.402 304.573 373.988 305.067 374.842 305.52C375.722 305.973 376.988 306.453 378.642 306.96C380.375 307.493 381.815 308.067 382.962 308.68C384.108 309.293 385.028 310.147 385.722 311.24C386.442 312.307 386.802 313.667 386.802 315.32C386.802 316.92 386.402 318.333 385.602 319.56C384.828 320.787 383.695 321.747 382.202 322.44C380.735 323.133 378.988 323.48 376.962 323.48C373.148 323.48 370.028 322.293 367.602 319.92L369.682 317.6C370.802 318.507 371.935 319.2 373.082 319.68C374.228 320.133 375.508 320.36 376.922 320.36C378.628 320.36 380.042 319.947 381.162 319.12C382.282 318.267 382.842 317.04 382.842 315.44C382.842 314.533 382.668 313.787 382.322 313.2C381.975 312.587 381.375 312.04 380.522 311.56C379.695 311.08 378.482 310.6 376.882 310.12C374.055 309.267 371.988 308.24 370.682 307.04C369.375 305.84 368.722 304.213 368.722 302.16C368.722 300.773 369.082 299.533 369.802 298.44C370.548 297.347 371.575 296.493 372.882 295.88C374.215 295.267 375.722 294.96 377.402 294.96ZM396.198 295.44V323H392.398V295.44H396.198ZM411.198 295.44L400.758 308.04L411.958 323H407.278L396.398 308.28L406.878 295.44H411.198ZM422.363 294.96C424.203 294.96 425.776 295.227 427.083 295.76C428.389 296.267 429.656 297.067 430.883 298.16L428.803 300.48C427.763 299.653 426.736 299.053 425.723 298.68C424.736 298.28 423.669 298.08 422.523 298.08C421.083 298.08 419.896 298.413 418.963 299.08C418.029 299.747 417.563 300.72 417.563 302C417.563 302.8 417.723 303.48 418.043 304.04C418.363 304.573 418.949 305.067 419.803 305.52C420.683 305.973 421.949 306.453 423.603 306.96C425.336 307.493 426.776 308.067 427.923 308.68C429.069 309.293 429.989 310.147 430.683 311.24C431.403 312.307 431.762 313.667 431.762 315.32C431.762 316.92 431.363 318.333 430.563 319.56C429.789 320.787 428.656 321.747 427.163 322.44C425.696 323.133 423.949 323.48 421.923 323.48C418.109 323.48 414.989 322.293 412.563 319.92L414.643 317.6C415.763 318.507 416.896 319.2 418.043 319.68C419.189 320.133 420.469 320.36 421.883 320.36C423.589 320.36 425.003 319.947 426.123 319.12C427.243 318.267 427.803 317.04 427.803 315.44C427.803 314.533 427.629 313.787 427.283 313.2C426.936 312.587 426.336 312.04 425.483 311.56C424.656 311.08 423.443 310.6 421.842 310.12C419.016 309.267 416.949 308.24 415.643 307.04C414.336 305.84 413.683 304.213 413.683 302.16C413.683 300.773 414.043 299.533 414.763 298.44C415.509 297.347 416.536 296.493 417.843 295.88C419.176 295.267 420.683 294.96 422.363 294.96Z" fill="#A0A0A0"/>
<path d="M377.224 366.464L373.864 383H370.936L367.888 369.152L364.816 383H361.96L358.6 366.464H360.832L363.496 381.008L366.688 366.464H369.112L372.376 381.008L375.136 366.464H377.224ZM384.626 370.064C386.402 370.064 387.778 370.656 388.754 371.84C389.746 373.024 390.242 374.632 390.242 376.664C390.242 377.976 390.018 379.136 389.57 380.144C389.122 381.136 388.474 381.912 387.626 382.472C386.778 383.016 385.77 383.288 384.602 383.288C382.826 383.288 381.442 382.696 380.45 381.512C379.458 380.328 378.962 378.72 378.962 376.688C378.962 375.376 379.186 374.224 379.634 373.232C380.082 372.224 380.73 371.448 381.578 370.904C382.426 370.344 383.442 370.064 384.626 370.064ZM384.626 371.84C382.434 371.84 381.338 373.456 381.338 376.688C381.338 379.904 382.426 381.512 384.602 381.512C386.778 381.512 387.866 379.896 387.866 376.664C387.866 373.448 386.786 371.84 384.626 371.84ZM399.385 370.064C399.833 370.064 400.249 370.112 400.633 370.208L400.225 372.368C399.841 372.272 399.473 372.224 399.121 372.224C398.337 372.224 397.705 372.512 397.225 373.088C396.745 373.664 396.369 374.56 396.097 375.776V383H393.889V370.352H395.785L396.001 372.92C396.337 371.976 396.793 371.264 397.369 370.784C397.945 370.304 398.617 370.064 399.385 370.064ZM405.355 365V383H403.147V365.264L405.355 365ZM412.627 370.352L407.971 375.944L413.155 383H410.515L405.499 376.088L410.155 370.352H412.627Z" fill="#A0A0A0"/>
<rect x="329" y="360" width="24" height="24" rx="5" fill="#FF60C9"/>
<path d="M512.68 366.464V381.008H519.472L519.208 383H510.4V366.464H512.68ZM531.29 383H529.394L529.226 381.032C528.746 381.816 528.194 382.392 527.57 382.76C526.946 383.112 526.186 383.288 525.29 383.288C524.186 383.288 523.322 382.952 522.698 382.28C522.074 381.608 521.762 380.656 521.762 379.424V370.352H523.97V379.184C523.97 380.048 524.122 380.664 524.426 381.032C524.73 381.384 525.226 381.56 525.914 381.56C527.146 381.56 528.202 380.832 529.082 379.376V370.352H531.29V383ZM541.802 370.064C542.954 370.064 543.85 370.408 544.49 371.096C545.146 371.784 545.474 372.728 545.474 373.928V383H543.266V374.24C543.266 373.344 543.098 372.712 542.762 372.344C542.426 371.976 541.93 371.792 541.274 371.792C540.602 371.792 540.01 371.984 539.498 372.368C538.986 372.752 538.506 373.304 538.058 374.024V383H535.85V370.352H537.746L537.938 372.224C538.386 371.552 538.938 371.024 539.594 370.64C540.266 370.256 541.002 370.064 541.802 370.064ZM554.521 370.064C555.273 370.064 555.961 370.176 556.585 370.4C557.209 370.608 557.809 370.952 558.385 371.432L557.329 372.824C556.881 372.504 556.441 372.272 556.009 372.128C555.593 371.968 555.129 371.888 554.617 371.888C553.593 371.888 552.793 372.296 552.217 373.112C551.657 373.928 551.377 375.136 551.377 376.736C551.377 378.336 551.657 379.52 552.217 380.288C552.777 381.04 553.577 381.416 554.617 381.416C555.113 381.416 555.569 381.344 555.985 381.2C556.401 381.04 556.865 380.792 557.377 380.456L558.385 381.896C557.233 382.824 555.945 383.288 554.521 383.288C552.809 383.288 551.457 382.712 550.465 381.56C549.489 380.408 549.001 378.816 549.001 376.784C549.001 375.44 549.225 374.264 549.673 373.256C550.121 372.248 550.753 371.464 551.569 370.904C552.401 370.344 553.385 370.064 554.521 370.064ZM567.326 370.064C568.478 370.064 569.374 370.408 570.014 371.096C570.67 371.784 570.998 372.728 570.998 373.928V383H568.79V374.24C568.79 373.344 568.614 372.712 568.262 372.344C567.926 371.976 567.43 371.792 566.774 371.792C566.118 371.792 565.534 371.984 565.022 372.368C564.51 372.752 564.03 373.296 563.582 374V383H561.374V365.288L563.582 365.048V372.104C564.574 370.744 565.822 370.064 567.326 370.064Z" fill="#A0A0A0"/>
<rect x="479" y="360" width="24" height="24" rx="5" fill="#F1FF4A"/>
<path d="M214.48 366.176C215.584 366.176 216.528 366.336 217.312 366.656C218.096 366.96 218.856 367.44 219.592 368.096L218.344 369.488C217.72 368.992 217.104 368.632 216.496 368.408C215.904 368.168 215.264 368.048 214.576 368.048C213.712 368.048 213 368.248 212.44 368.648C211.88 369.048 211.6 369.632 211.6 370.4C211.6 370.88 211.696 371.288 211.888 371.624C212.08 371.944 212.432 372.24 212.944 372.512C213.472 372.784 214.232 373.072 215.224 373.376C216.264 373.696 217.128 374.04 217.816 374.408C218.504 374.776 219.056 375.288 219.472 375.944C219.904 376.584 220.12 377.4 220.12 378.392C220.12 379.352 219.88 380.2 219.4 380.936C218.936 381.672 218.256 382.248 217.36 382.664C216.48 383.08 215.432 383.288 214.216 383.288C211.928 383.288 210.056 382.576 208.6 381.152L209.848 379.76C210.52 380.304 211.2 380.72 211.888 381.008C212.576 381.28 213.344 381.416 214.192 381.416C215.216 381.416 216.064 381.168 216.736 380.672C217.408 380.16 217.744 379.424 217.744 378.464C217.744 377.92 217.64 377.472 217.432 377.12C217.224 376.752 216.864 376.424 216.352 376.136C215.856 375.848 215.128 375.56 214.168 375.272C212.472 374.76 211.232 374.144 210.448 373.424C209.664 372.704 209.272 371.728 209.272 370.496C209.272 369.664 209.488 368.92 209.92 368.264C210.368 367.608 210.984 367.096 211.768 366.728C212.568 366.36 213.472 366.176 214.48 366.176ZM225.878 383.288C225.062 383.288 224.414 383.048 223.934 382.568C223.47 382.072 223.238 381.384 223.238 380.504V365.264L225.446 365V380.456C225.446 380.808 225.502 381.064 225.614 381.224C225.742 381.384 225.95 381.464 226.238 381.464C226.542 381.464 226.814 381.416 227.054 381.32L227.63 382.856C227.102 383.144 226.518 383.288 225.878 383.288ZM239.824 376.304C239.824 376.672 239.808 377.048 239.776 377.432H231.712C231.808 378.824 232.16 379.848 232.768 380.504C233.376 381.16 234.16 381.488 235.12 381.488C235.728 381.488 236.288 381.4 236.8 381.224C237.312 381.048 237.848 380.768 238.408 380.384L239.368 381.704C238.024 382.76 236.552 383.288 234.952 383.288C233.192 383.288 231.816 382.712 230.824 381.56C229.848 380.408 229.36 378.824 229.36 376.808C229.36 375.496 229.568 374.336 229.984 373.328C230.416 372.304 231.024 371.504 231.808 370.928C232.608 370.352 233.544 370.064 234.616 370.064C236.296 370.064 237.584 370.616 238.48 371.72C239.376 372.824 239.824 374.352 239.824 376.304ZM237.64 375.656C237.64 374.408 237.392 373.456 236.896 372.8C236.4 372.144 235.656 371.816 234.664 371.816C232.856 371.816 231.872 373.144 231.712 375.8H237.64V375.656ZM252.902 376.304C252.902 376.672 252.886 377.048 252.854 377.432H244.79C244.886 378.824 245.238 379.848 245.846 380.504C246.454 381.16 247.238 381.488 248.198 381.488C248.806 381.488 249.366 381.4 249.878 381.224C250.39 381.048 250.926 380.768 251.486 380.384L252.446 381.704C251.102 382.76 249.63 383.288 248.03 383.288C246.27 383.288 244.894 382.712 243.902 381.56C242.926 380.408 242.438 378.824 242.438 376.808C242.438 375.496 242.646 374.336 243.062 373.328C243.494 372.304 244.102 371.504 244.886 370.928C245.686 370.352 246.622 370.064 247.694 370.064C249.374 370.064 250.662 370.616 251.558 371.72C252.454 372.824 252.902 374.352 252.902 376.304ZM250.718 375.656C250.718 374.408 250.47 373.456 249.974 372.8C249.478 372.144 248.734 371.816 247.742 371.816C245.934 371.816 244.95 373.144 244.79 375.8H250.718V375.656ZM262.236 370.064C263.852 370.064 265.036 370.64 265.788 371.792C266.54 372.944 266.916 374.568 266.916 376.664C266.916 378.648 266.484 380.248 265.62 381.464C264.756 382.68 263.532 383.288 261.948 383.288C260.54 383.288 259.436 382.808 258.636 381.848V387.848L256.428 388.112V370.352H258.324L258.492 372.056C258.956 371.416 259.516 370.928 260.172 370.592C260.828 370.24 261.516 370.064 262.236 370.064ZM261.42 381.488C263.5 381.488 264.54 379.88 264.54 376.664C264.54 373.432 263.588 371.816 261.684 371.816C261.06 371.816 260.492 372 259.98 372.368C259.468 372.736 259.02 373.208 258.636 373.784V379.952C258.956 380.448 259.356 380.832 259.836 381.104C260.316 381.36 260.844 381.488 261.42 381.488Z" fill="#A0A0A0"/>
<rect x="179" y="360" width="24" height="24" rx="5" fill="#00F0FF"/>
<path d="M370.168 424.464L369.928 426.408H365.344V441H363.064V426.408H358.36V424.464H370.168ZM380.411 441L379.163 436.848H372.899L371.651 441H369.347L374.651 424.464H377.531L382.811 441H380.411ZM373.451 435H378.611L376.043 426.36L373.451 435ZM389.441 424.176C390.545 424.176 391.489 424.336 392.273 424.656C393.057 424.96 393.817 425.44 394.553 426.096L393.305 427.488C392.681 426.992 392.065 426.632 391.457 426.408C390.865 426.168 390.225 426.048 389.537 426.048C388.673 426.048 387.961 426.248 387.401 426.648C386.841 427.048 386.561 427.632 386.561 428.4C386.561 428.88 386.657 429.288 386.849 429.624C387.041 429.944 387.393 430.24 387.905 430.512C388.433 430.784 389.193 431.072 390.185 431.376C391.225 431.696 392.089 432.04 392.777 432.408C393.465 432.776 394.017 433.288 394.433 433.944C394.865 434.584 395.081 435.4 395.081 436.392C395.081 437.352 394.841 438.2 394.361 438.936C393.897 439.672 393.217 440.248 392.321 440.664C391.441 441.08 390.393 441.288 389.177 441.288C386.889 441.288 385.017 440.576 383.561 439.152L384.809 437.76C385.481 438.304 386.161 438.72 386.849 439.008C387.537 439.28 388.305 439.416 389.153 439.416C390.177 439.416 391.025 439.168 391.697 438.672C392.369 438.16 392.705 437.424 392.705 436.464C392.705 435.92 392.601 435.472 392.393 435.12C392.185 434.752 391.825 434.424 391.313 434.136C390.817 433.848 390.089 433.56 389.129 433.272C387.433 432.76 386.193 432.144 385.409 431.424C384.625 430.704 384.233 429.728 384.233 428.496C384.233 427.664 384.449 426.92 384.881 426.264C385.329 425.608 385.945 425.096 386.729 424.728C387.529 424.36 388.433 424.176 389.441 424.176ZM400.719 424.464V441H398.439V424.464H400.719ZM409.719 424.464L403.455 432.024L410.175 441H407.367L400.839 432.168L407.127 424.464H409.719ZM416.418 424.176C417.522 424.176 418.466 424.336 419.25 424.656C420.034 424.96 420.794 425.44 421.53 426.096L420.282 427.488C419.658 426.992 419.042 426.632 418.434 426.408C417.842 426.168 417.202 426.048 416.514 426.048C415.65 426.048 414.938 426.248 414.378 426.648C413.818 427.048 413.538 427.632 413.538 428.4C413.538 428.88 413.634 429.288 413.826 429.624C414.018 429.944 414.37 430.24 414.882 430.512C415.41 430.784 416.17 431.072 417.162 431.376C418.202 431.696 419.066 432.04 419.754 432.408C420.442 432.776 420.994 433.288 421.41 433.944C421.842 434.584 422.057 435.4 422.057 436.392C422.057 437.352 421.818 438.2 421.338 438.936C420.874 439.672 420.194 440.248 419.298 440.664C418.418 441.08 417.37 441.288 416.154 441.288C413.866 441.288 411.994 440.576 410.538 439.152L411.786 437.76C412.458 438.304 413.138 438.72 413.826 439.008C414.514 439.28 415.282 439.416 416.13 439.416C417.154 439.416 418.002 439.168 418.674 438.672C419.346 438.16 419.682 437.424 419.682 436.464C419.682 435.92 419.578 435.472 419.37 435.12C419.162 434.752 418.802 434.424 418.29 434.136C417.794 433.848 417.066 433.56 416.105 433.272C414.41 432.76 413.17 432.144 412.386 431.424C411.602 430.704 411.21 429.728 411.21 428.496C411.21 427.664 411.426 426.92 411.858 426.264C412.306 425.608 412.922 425.096 413.706 424.728C414.506 424.36 415.41 424.176 416.418 424.176Z" fill="#A0A0A0"/>
<rect x="329" y="418" width="24" height="24" rx="5" fill="#C7C7C7" fill-opacity="0.5"/>
<path d="M520.168 424.464L519.928 426.408H515.344V441H513.064V426.408H508.36V424.464H520.168ZM530.411 441L529.163 436.848H522.899L521.651 441H519.347L524.651 424.464H527.531L532.811 441H530.411ZM523.451 435H528.611L526.043 426.36L523.451 435ZM539.441 424.176C540.545 424.176 541.489 424.336 542.273 424.656C543.057 424.96 543.817 425.44 544.553 426.096L543.305 427.488C542.681 426.992 542.065 426.632 541.457 426.408C540.865 426.168 540.225 426.048 539.537 426.048C538.673 426.048 537.961 426.248 537.401 426.648C536.841 427.048 536.561 427.632 536.561 428.4C536.561 428.88 536.657 429.288 536.849 429.624C537.041 429.944 537.393 430.24 537.905 430.512C538.433 430.784 539.193 431.072 540.185 431.376C541.225 431.696 542.089 432.04 542.777 432.408C543.465 432.776 544.017 433.288 544.433 433.944C544.865 434.584 545.081 435.4 545.081 436.392C545.081 437.352 544.841 438.2 544.361 438.936C543.897 439.672 543.217 440.248 542.321 440.664C541.441 441.08 540.393 441.288 539.177 441.288C536.889 441.288 535.017 440.576 533.561 439.152L534.809 437.76C535.481 438.304 536.161 438.72 536.849 439.008C537.537 439.28 538.305 439.416 539.153 439.416C540.177 439.416 541.025 439.168 541.697 438.672C542.369 438.16 542.705 437.424 542.705 436.464C542.705 435.92 542.601 435.472 542.393 435.12C542.185 434.752 541.825 434.424 541.313 434.136C540.817 433.848 540.089 433.56 539.129 433.272C537.433 432.76 536.193 432.144 535.409 431.424C534.625 430.704 534.233 429.728 534.233 428.496C534.233 427.664 534.449 426.92 534.881 426.264C535.329 425.608 535.945 425.096 536.729 424.728C537.529 424.36 538.433 424.176 539.441 424.176ZM550.719 424.464V441H548.439V424.464H550.719ZM559.719 424.464L553.455 432.024L560.175 441H557.367L550.839 432.168L557.127 424.464H559.719ZM566.418 424.176C567.522 424.176 568.466 424.336 569.25 424.656C570.034 424.96 570.794 425.44 571.53 426.096L570.282 427.488C569.658 426.992 569.042 426.632 568.434 426.408C567.842 426.168 567.202 426.048 566.514 426.048C565.65 426.048 564.938 426.248 564.378 426.648C563.818 427.048 563.538 427.632 563.538 428.4C563.538 428.88 563.634 429.288 563.826 429.624C564.018 429.944 564.37 430.24 564.882 430.512C565.41 430.784 566.17 431.072 567.162 431.376C568.202 431.696 569.066 432.04 569.754 432.408C570.442 432.776 570.994 433.288 571.41 433.944C571.842 434.584 572.057 435.4 572.057 436.392C572.057 437.352 571.818 438.2 571.338 438.936C570.874 439.672 570.194 440.248 569.298 440.664C568.418 441.08 567.37 441.288 566.154 441.288C563.866 441.288 561.994 440.576 560.538 439.152L561.786 437.76C562.458 438.304 563.138 438.72 563.826 439.008C564.514 439.28 565.282 439.416 566.13 439.416C567.154 439.416 568.002 439.168 568.674 438.672C569.346 438.16 569.682 437.424 569.682 436.464C569.682 435.92 569.578 435.472 569.37 435.12C569.162 434.752 568.802 434.424 568.29 434.136C567.794 433.848 567.066 433.56 566.105 433.272C564.41 432.76 563.17 432.144 562.386 431.424C561.602 430.704 561.21 429.728 561.21 428.496C561.21 427.664 561.426 426.92 561.858 426.264C562.306 425.608 562.922 425.096 563.706 424.728C564.506 424.36 565.41 424.176 566.418 424.176Z" fill="#A0A0A0"/>
<rect x="479" y="418" width="24" height="24" rx="5" fill="#C7C7C7" fill-opacity="0.5"/>
<path d="M220.168 424.464L219.928 426.408H215.344V441H213.064V426.408H208.36V424.464H220.168ZM230.411 441L229.163 436.848H222.899L221.651 441H219.347L224.651 424.464H227.531L232.811 441H230.411ZM223.451 435H228.611L226.043 426.36L223.451 435ZM239.441 424.176C240.545 424.176 241.489 424.336 242.273 424.656C243.057 424.96 243.817 425.44 244.553 426.096L243.305 427.488C242.681 426.992 242.065 426.632 241.457 426.408C240.865 426.168 240.225 426.048 239.537 426.048C238.673 426.048 237.961 426.248 237.401 426.648C236.841 427.048 236.561 427.632 236.561 428.4C236.561 428.88 236.657 429.288 236.849 429.624C237.041 429.944 237.393 430.24 237.905 430.512C238.433 430.784 239.193 431.072 240.185 431.376C241.225 431.696 242.089 432.04 242.777 432.408C243.465 432.776 244.017 433.288 244.433 433.944C244.865 434.584 245.081 435.4 245.081 436.392C245.081 437.352 244.841 438.2 244.361 438.936C243.897 439.672 243.217 440.248 242.321 440.664C241.441 441.08 240.393 441.288 239.177 441.288C236.889 441.288 235.017 440.576 233.561 439.152L234.809 437.76C235.481 438.304 236.161 438.72 236.849 439.008C237.537 439.28 238.305 439.416 239.153 439.416C240.177 439.416 241.025 439.168 241.697 438.672C242.369 438.16 242.705 437.424 242.705 436.464C242.705 435.92 242.601 435.472 242.393 435.12C242.185 434.752 241.825 434.424 241.313 434.136C240.817 433.848 240.089 433.56 239.129 433.272C237.433 432.76 236.193 432.144 235.409 431.424C234.625 430.704 234.233 429.728 234.233 428.496C234.233 427.664 234.449 426.92 234.881 426.264C235.329 425.608 235.945 425.096 236.729 424.728C237.529 424.36 238.433 424.176 239.441 424.176ZM250.719 424.464V441H248.439V424.464H250.719ZM259.719 424.464L253.455 432.024L260.175 441H257.367L250.839 432.168L257.127 424.464H259.719ZM266.418 424.176C267.522 424.176 268.466 424.336 269.25 424.656C270.034 424.96 270.794 425.44 271.53 426.096L270.282 427.488C269.658 426.992 269.042 426.632 268.434 426.408C267.842 426.168 267.202 426.048 266.514 426.048C265.65 426.048 264.938 426.248 264.378 426.648C263.818 427.048 263.538 427.632 263.538 428.4C263.538 428.88 263.634 429.288 263.826 429.624C264.018 429.944 264.37 430.24 264.882 430.512C265.41 430.784 266.17 431.072 267.162 431.376C268.202 431.696 269.066 432.04 269.754 432.408C270.442 432.776 270.994 433.288 271.41 433.944C271.842 434.584 272.057 435.4 272.057 436.392C272.057 437.352 271.818 438.2 271.338 438.936C270.874 439.672 270.194 440.248 269.298 440.664C268.418 441.08 267.37 441.288 266.154 441.288C263.866 441.288 261.994 440.576 260.538 439.152L261.786 437.76C262.458 438.304 263.138 438.72 263.826 439.008C264.514 439.28 265.282 439.416 266.13 439.416C267.154 439.416 268.002 439.168 268.674 438.672C269.346 438.16 269.682 437.424 269.682 436.464C269.682 435.92 269.578 435.472 269.37 435.12C269.162 434.752 268.802 434.424 268.29 434.136C267.794 433.848 267.066 433.56 266.105 433.272C264.41 432.76 263.17 432.144 262.386 431.424C261.602 430.704 261.21 429.728 261.21 428.496C261.21 427.664 261.426 426.92 261.858 426.264C262.306 425.608 262.922 425.096 263.706 424.728C264.506 424.36 265.41 424.176 266.418 424.176Z" fill="#A0A0A0"/>
<rect x="179" y="418" width="24" height="24" rx="5" fill="#C7C7C7" fill-opacity="0.5"/>
<rect x="329" y="21" width="30" height="30" rx="5" fill="#BFBFBF" fill-opacity="0.65"/>
<path d="M345.968 26.088V33.288H352.976V36.936H345.968V44.088H341.936V36.936H334.976V33.288H341.936V26.088H345.968Z" fill="white"/>
<path d="M370.168 482.464L369.928 484.408H365.344V499H363.064V484.408H358.36V482.464H370.168ZM380.411 499L379.163 494.848H372.899L371.651 499H369.347L374.651 482.464H377.531L382.811 499H380.411ZM373.451 493H378.611L376.043 484.36L373.451 493ZM389.441 482.176C390.545 482.176 391.489 482.336 392.273 482.656C393.057 482.96 393.817 483.44 394.553 484.096L393.305 485.488C392.681 484.992 392.065 484.632 391.457 484.408C390.865 484.168 390.225 484.048 389.537 484.048C388.673 484.048 387.961 484.248 387.401 484.648C386.841 485.048 386.561 485.632 386.561 486.4C386.561 486.88 386.657 487.288 386.849 487.624C387.041 487.944 387.393 488.24 387.905 488.512C388.433 488.784 389.193 489.072 390.185 489.376C391.225 489.696 392.089 490.04 392.777 490.408C393.465 490.776 394.017 491.288 394.433 491.944C394.865 492.584 395.081 493.4 395.081 494.392C395.081 495.352 394.841 496.2 394.361 496.936C393.897 497.672 393.217 498.248 392.321 498.664C391.441 499.08 390.393 499.288 389.177 499.288C386.889 499.288 385.017 498.576 383.561 497.152L384.809 495.76C385.481 496.304 386.161 496.72 386.849 497.008C387.537 497.28 388.305 497.416 389.153 497.416C390.177 497.416 391.025 497.168 391.697 496.672C392.369 496.16 392.705 495.424 392.705 494.464C392.705 493.92 392.601 493.472 392.393 493.12C392.185 492.752 391.825 492.424 391.313 492.136C390.817 491.848 390.089 491.56 389.129 491.272C387.433 490.76 386.193 490.144 385.409 489.424C384.625 488.704 384.233 487.728 384.233 486.496C384.233 485.664 384.449 484.92 384.881 484.264C385.329 483.608 385.945 483.096 386.729 482.728C387.529 482.36 388.433 482.176 389.441 482.176ZM400.719 482.464V499H398.439V482.464H400.719ZM409.719 482.464L403.455 490.024L410.175 499H407.367L400.839 490.168L407.127 482.464H409.719ZM416.418 482.176C417.522 482.176 418.466 482.336 419.25 482.656C420.034 482.96 420.794 483.44 421.53 484.096L420.282 485.488C419.658 484.992 419.042 484.632 418.434 484.408C417.842 484.168 417.202 484.048 416.514 484.048C415.65 484.048 414.938 484.248 414.378 484.648C413.818 485.048 413.538 485.632 413.538 486.4C413.538 486.88 413.634 487.288 413.826 487.624C414.018 487.944 414.37 488.24 414.882 488.512C415.41 488.784 416.17 489.072 417.162 489.376C418.202 489.696 419.066 490.04 419.754 490.408C420.442 490.776 420.994 491.288 421.41 491.944C421.842 492.584 422.057 493.4 422.057 494.392C422.057 495.352 421.818 496.2 421.338 496.936C420.874 497.672 420.194 498.248 419.298 498.664C418.418 499.08 417.37 499.288 416.154 499.288C413.866 499.288 411.994 498.576 410.538 497.152L411.786 495.76C412.458 496.304 413.138 496.72 413.826 497.008C414.514 497.28 415.282 497.416 416.13 497.416C417.154 497.416 418.002 497.168 418.674 496.672C419.346 496.16 419.682 495.424 419.682 494.464C419.682 493.92 419.578 493.472 419.37 493.12C419.162 492.752 418.802 492.424 418.29 492.136C417.794 491.848 417.066 491.56 416.105 491.272C414.41 490.76 413.17 490.144 412.386 489.424C411.602 488.704 411.21 487.728 411.21 486.496C411.21 485.664 411.426 484.92 411.858 484.264C412.306 483.608 412.922 483.096 413.706 482.728C414.506 482.36 415.41 482.176 416.418 482.176Z" fill="#A0A0A0"/>
<rect x="329" y="476" width="24" height="24" rx="5" fill="#C7C7C7" fill-opacity="0.5"/>
<path d="M520.168 482.464L519.928 484.408H515.344V499H513.064V484.408H508.36V482.464H520.168ZM530.411 499L529.163 494.848H522.899L521.651 499H519.347L524.651 482.464H527.531L532.811 499H530.411ZM523.451 493H528.611L526.043 484.36L523.451 493ZM539.441 482.176C540.545 482.176 541.489 482.336 542.273 482.656C543.057 482.96 543.817 483.44 544.553 484.096L543.305 485.488C542.681 484.992 542.065 484.632 541.457 484.408C540.865 484.168 540.225 484.048 539.537 484.048C538.673 484.048 537.961 484.248 537.401 484.648C536.841 485.048 536.561 485.632 536.561 486.4C536.561 486.88 536.657 487.288 536.849 487.624C537.041 487.944 537.393 488.24 537.905 488.512C538.433 488.784 539.193 489.072 540.185 489.376C541.225 489.696 542.089 490.04 542.777 490.408C543.465 490.776 544.017 491.288 544.433 491.944C544.865 492.584 545.081 493.4 545.081 494.392C545.081 495.352 544.841 496.2 544.361 496.936C543.897 497.672 543.217 498.248 542.321 498.664C541.441 499.08 540.393 499.288 539.177 499.288C536.889 499.288 535.017 498.576 533.561 497.152L534.809 495.76C535.481 496.304 536.161 496.72 536.849 497.008C537.537 497.28 538.305 497.416 539.153 497.416C540.177 497.416 541.025 497.168 541.697 496.672C542.369 496.16 542.705 495.424 542.705 494.464C542.705 493.92 542.601 493.472 542.393 493.12C542.185 492.752 541.825 492.424 541.313 492.136C540.817 491.848 540.089 491.56 539.129 491.272C537.433 490.76 536.193 490.144 535.409 489.424C534.625 488.704 534.233 487.728 534.233 486.496C534.233 485.664 534.449 484.92 534.881 484.264C535.329 483.608 535.945 483.096 536.729 482.728C537.529 482.36 538.433 482.176 539.441 482.176ZM550.719 482.464V499H548.439V482.464H550.719ZM559.719 482.464L553.455 490.024L560.175 499H557.367L550.839 490.168L557.127 482.464H559.719ZM566.418 482.176C567.522 482.176 568.466 482.336 569.25 482.656C570.034 482.96 570.794 483.44 571.53 484.096L570.282 485.488C569.658 484.992 569.042 484.632 568.434 484.408C567.842 484.168 567.202 484.048 566.514 484.048C565.65 484.048 564.938 484.248 564.378 484.648C563.818 485.048 563.538 485.632 563.538 486.4C563.538 486.88 563.634 487.288 563.826 487.624C564.018 487.944 564.37 488.24 564.882 488.512C565.41 488.784 566.17 489.072 567.162 489.376C568.202 489.696 569.066 490.04 569.754 490.408C570.442 490.776 570.994 491.288 571.41 491.944C571.842 492.584 572.057 493.4 572.057 494.392C572.057 495.352 571.818 496.2 571.338 496.936C570.874 497.672 570.194 498.248 569.298 498.664C568.418 499.08 567.37 499.288 566.154 499.288C563.866 499.288 561.994 498.576 560.538 497.152L561.786 495.76C562.458 496.304 563.138 496.72 563.826 497.008C564.514 497.28 565.282 497.416 566.13 497.416C567.154 497.416 568.002 497.168 568.674 496.672C569.346 496.16 569.682 495.424 569.682 494.464C569.682 493.92 569.578 493.472 569.37 493.12C569.162 492.752 568.802 492.424 568.29 492.136C567.794 491.848 567.066 491.56 566.105 491.272C564.41 490.76 563.17 490.144 562.386 489.424C561.602 488.704 561.21 487.728 561.21 486.496C561.21 485.664 561.426 484.92 561.858 484.264C562.306 483.608 562.922 483.096 563.706 482.728C564.506 482.36 565.41 482.176 566.418 482.176Z" fill="#A0A0A0"/>
<rect x="479" y="476" width="24" height="24" rx="5" fill="#C7C7C7" fill-opacity="0.5"/>
<path d="M220.168 482.464L219.928 484.408H215.344V499H213.064V484.408H208.36V482.464H220.168ZM230.411 499L229.163 494.848H222.899L221.651 499H219.347L224.651 482.464H227.531L232.811 499H230.411ZM223.451 493H228.611L226.043 484.36L223.451 493ZM239.441 482.176C240.545 482.176 241.489 482.336 242.273 482.656C243.057 482.96 243.817 483.44 244.553 484.096L243.305 485.488C242.681 484.992 242.065 484.632 241.457 484.408C240.865 484.168 240.225 484.048 239.537 484.048C238.673 484.048 237.961 484.248 237.401 484.648C236.841 485.048 236.561 485.632 236.561 486.4C236.561 486.88 236.657 487.288 236.849 487.624C237.041 487.944 237.393 488.24 237.905 488.512C238.433 488.784 239.193 489.072 240.185 489.376C241.225 489.696 242.089 490.04 242.777 490.408C243.465 490.776 244.017 491.288 244.433 491.944C244.865 492.584 245.081 493.4 245.081 494.392C245.081 495.352 244.841 496.2 244.361 496.936C243.897 497.672 243.217 498.248 242.321 498.664C241.441 499.08 240.393 499.288 239.177 499.288C236.889 499.288 235.017 498.576 233.561 497.152L234.809 495.76C235.481 496.304 236.161 496.72 236.849 497.008C237.537 497.28 238.305 497.416 239.153 497.416C240.177 497.416 241.025 497.168 241.697 496.672C242.369 496.16 242.705 495.424 242.705 494.464C242.705 493.92 242.601 493.472 242.393 493.12C242.185 492.752 241.825 492.424 241.313 492.136C240.817 491.848 240.089 491.56 239.129 491.272C237.433 490.76 236.193 490.144 235.409 489.424C234.625 488.704 234.233 487.728 234.233 486.496C234.233 485.664 234.449 484.92 234.881 484.264C235.329 483.608 235.945 483.096 236.729 482.728C237.529 482.36 238.433 482.176 239.441 482.176ZM250.719 482.464V499H248.439V482.464H250.719ZM259.719 482.464L253.455 490.024L260.175 499H257.367L250.839 490.168L257.127 482.464H259.719ZM266.418 482.176C267.522 482.176 268.466 482.336 269.25 482.656C270.034 482.96 270.794 483.44 271.53 484.096L270.282 485.488C269.658 484.992 269.042 484.632 268.434 484.408C267.842 484.168 267.202 484.048 266.514 484.048C265.65 484.048 264.938 484.248 264.378 484.648C263.818 485.048 263.538 485.632 263.538 486.4C263.538 486.88 263.634 487.288 263.826 487.624C264.018 487.944 264.37 488.24 264.882 488.512C265.41 488.784 266.17 489.072 267.162 489.376C268.202 489.696 269.066 490.04 269.754 490.408C270.442 490.776 270.994 491.288 271.41 491.944C271.842 492.584 272.057 493.4 272.057 494.392C272.057 495.352 271.818 496.2 271.338 496.936C270.874 497.672 270.194 498.248 269.298 498.664C268.418 499.08 267.37 499.288 266.154 499.288C263.866 499.288 261.994 498.576 260.538 497.152L261.786 495.76C262.458 496.304 263.138 496.72 263.826 497.008C264.514 497.28 265.282 497.416 266.13 497.416C267.154 497.416 268.002 497.168 268.674 496.672C269.346 496.16 269.682 495.424 269.682 494.464C269.682 493.92 269.578 493.472 269.37 493.12C269.162 492.752 268.802 492.424 268.29 492.136C267.794 491.848 267.066 491.56 266.105 491.272C264.41 490.76 263.17 490.144 262.386 489.424C261.602 488.704 261.21 487.728 261.21 486.496C261.21 485.664 261.426 484.92 261.858 484.264C262.306 483.608 262.922 483.096 263.706 482.728C264.506 482.36 265.41 482.176 266.418 482.176Z" fill="#A0A0A0"/>
<rect x="179" y="476" width="24" height="24" rx="5" fill="#C7C7C7" fill-opacity="0.5"/>
<line x1="11" y1="14.5" x2="32" y2="14.5" stroke="white" stroke-width="5" stroke-linejoin="round"/>
<path d="M11 22.5H32" stroke="white" stroke-width="5" stroke-linejoin="round"/>
<path d="M11 30.5H32" stroke="white" stroke-width="5" stroke-linejoin="round"/>
<rect x="6" y="7" width="30" height="30" rx="5" fill="#BFBFBF" fill-opacity="0.65"/>
<line x1="681.5" y1="323" x2="681.5" y2="854" stroke="white"/>
</g>
<defs>
<clipPath id="clip0_102_2">
<rect width="1396" height="854" fill="white"/>
</clipPath>
</defs>
</svg>
